<?xml version="1.0" encoding="utf-8"?>
<!-- Generator: Adobe Illustrator 18.1.1, SVG Export Plug-In . SVG Version: 6.00 Build 0)  -->
<svg version="1.1" id="Capa_1" xmlns="http://www.w3.org/2000/svg" xmlns:xlink="http://www.w3.org/1999/xlink" x="0px" y="0px"
	 viewBox="-49 141 512 512" enable-background="new -49 141 512 512" xml:space="preserve">
<g>
	<g id="check-circle-outline">
		<path fill="#005EB8" d="M102,348.4l-35.8,35.8l115.2,115.2l256-256l-35.8-35.8L181.4,427.7L102,348.4z M411.8,397
			c0,112.6-92.2,204.8-204.8,204.8S2.2,509.6,2.2,397S94.4,192.2,207,192.2c20.5,0,38.4,2.6,56.3,7.7l41-41
			c-30.7-10.2-64-17.9-97.3-17.9C66.2,141-49,256.2-49,397S66.2,653,207,653s256-115.2,256-256H411.8z"/>
	</g>
</g>
</svg>
