<?xml version="1.0" encoding="utf-8"?>
<!-- Generator: Adobe Illustrator 18.1.1, SVG Export Plug-In . SVG Version: 6.00 Build 0)  -->
<svg version="1.1" id="Layer_1" xmlns="http://www.w3.org/2000/svg" xmlns:xlink="http://www.w3.org/1999/xlink" x="0px" y="0px"
	 viewBox="8.9 131.3 612 736.5" enable-background="new 8.9 131.3 612 736.5" xml:space="preserve">
<g id="Group">
	<path marker-end="none" marker-start="none" fill="#005EB8" d="M8.9,794.6V208.3c0-42.8,34.2-77,77-77h342.4
		c8.6,0,17.1,4.3,21.4,8.6l162.6,162.6c4.3,4.3,8.6,12.8,8.6,21.4v30l0,0l0,0v436.5c0,42.8-34.2,77-77,77H81.7
		C38.9,871.6,8.9,837.4,8.9,794.6z M552.4,794.6V388H394.1c-17.1,0-34.2-12.8-34.2-34.2V195.5H81.7c-4.3,0-12.8,4.3-12.8,12.8v586.3
		c0,4.3,4.3,12.8,12.8,12.8h457.9C548.1,807.5,552.4,798.9,552.4,794.6z M137.3,644.8c0-17.1,12.8-34.2,34.2-34.2h291
		c17.1,0,34.2,12.8,34.2,34.2c0,17.1-12.8,34.2-34.2,34.2H167.2C150.1,679.1,137.3,661.9,137.3,644.8z M137.3,550.7
		c0-17.1,12.8-34.2,34.2-34.2h291c17.1,0,34.2,12.8,34.2,34.2c0,17.1-12.8,34.2-34.2,34.2H167.2
		C150.1,580.6,137.3,567.8,137.3,550.7z M137.3,452.2c0-17.1,12.8-34.2,34.2-34.2h291c17.1,0,34.2,12.8,34.2,34.2
		c0,17.1-12.8,34.2-34.2,34.2H167.2C150.1,486.5,137.3,469.4,137.3,452.2z M133,358.1c0-17.1,12.8-34.2,34.2-34.2h128.4
		c17.1,0,34.2,12.8,34.2,34.2c0,17.1-12.8,34.2-34.2,34.2H167.2C150.1,388,133,375.2,133,358.1z M539.6,323.8L424,208.3v115.6H539.6
		z"/>
</g>
</svg>
