<?xml version="1.0" encoding="utf-8"?>
<!-- Generator: Adobe Illustrator 18.1.1, SVG Export Plug-In . SVG Version: 6.00 Build 0)  -->
<svg version="1.1" id="Layer_1" xmlns="http://www.w3.org/2000/svg" xmlns:xlink="http://www.w3.org/1999/xlink" x="0px" y="0px"
	 viewBox="30.8 117.8 560.1 556.4" enable-background="new 30.8 117.8 560.1 556.4" xml:space="preserve">
<g id="Document" transform="scale(1 -1)">
	<g id="Spread" transform="translate(0 -36)">
		<g id="Layer_1__x28_2_x29_">
			<g id="Group">
				<polygon fill="none" points="53.8,-438.3 665.8,-438.3 665.8,-438.3 				"/>
				<path marker-end="none" marker-start="none" fill="#005EB8" d="M30.8-590v155.8c0,26,22.3,48.2,48.2,48.2h155.8
					c26,0,48.2-22.3,48.2-48.2V-590c0-26-22.3-48.2-48.2-48.2H79C53-638.2,30.8-615.9,30.8-590z M338.6-590v155.8
					c0,26,22.3,48.2,48.2,48.2h155.8c26,0,48.2-22.3,48.2-48.2V-590c0-26-22.3-48.2-48.2-48.2H383.1
					C357.2-638.2,338.6-615.9,338.6-590z M223.6-582.5v137.2H86.4v-137.2H223.6z M531.5-582.5v137.2H394.3v-137.2H531.5z
					 M30.8-285.8V-130c0,26,22.3,48.2,48.2,48.2h155.8c26,0,48.2-22.3,48.2-48.2v-155.8c0-26-22.3-48.2-48.2-48.2H79
					C53-330.3,30.8-311.8,30.8-285.8z M338.6-285.8V-130c0,26,22.3,48.2,48.2,48.2h155.8c26,0,48.2-22.3,48.2-48.2v-155.8
					c0-26-22.3-48.2-48.2-48.2H383.1C357.2-330.3,338.6-311.8,338.6-285.8z M223.6-274.7v137.2H86.4v-137.2H223.6z M531.5-274.7
					v137.2H394.3v-137.2H531.5z"/>
			</g>
		</g>
	</g>
</g>
</svg>
