<?xml version="1.0" encoding="utf-8"?>
<!-- Generator: Adobe Illustrator 18.1.1, SVG Export Plug-In . SVG Version: 6.00 Build 0)  -->
<svg version="1.1" id="Layer_1" xmlns="http://www.w3.org/2000/svg" xmlns:xlink="http://www.w3.org/1999/xlink" x="0px" y="0px"
	 viewBox="-12 43.3 612 526.7" enable-background="new -12 43.3 612 526.7" xml:space="preserve">
<g id="Document" transform="scale(1 -1)">
	<g id="Spread" transform="translate(0 -36)">
		<g id="Layer_1__x28_2_x29_">
			<g id="Group">
				<polygon fill="none" points="-12,-7.3 600,-7.3 600,-7.3 				"/>
				<path marker-end="none" marker-start="none" fill="#005EB8" d="M43.6-504.3c0,14.8,11.1,29.7,29.7,29.7h445.1
					c14.8,0,29.7-11.1,29.7-29.7c0-14.8-11.1-29.7-29.7-29.7H73.3C54.8-534,43.6-522.9,43.6-504.3z M43.6-311.4
					c0,14.8,11.1,29.7,29.7,29.7h445.1c14.8,0,29.7-11.1,29.7-29.7c0-14.8-11.1-29.7-29.7-29.7H73.3
					C54.8-341.1,43.6-326.3,43.6-311.4z M43.6-118.6c0,14.8,11.1,29.7,29.7,29.7h445.1c14.8,0,29.7-11.1,29.7-29.7
					c0-14.8-11.1-29.7-29.7-29.7H73.3C54.8-144.5,43.6-133.4,43.6-118.6z"/>
			</g>
		</g>
	</g>
</g>
</svg>
