<?xml version="1.0" encoding="utf-8"?>
<!-- Generator: Adobe Illustrator 18.1.1, SVG Export Plug-In . SVG Version: 6.00 Build 0)  -->
<svg version="1.1" id="Layer_1" xmlns="http://www.w3.org/2000/svg" xmlns:xlink="http://www.w3.org/1999/xlink" x="0px" y="0px"
	 viewBox="-21.7 90 612 612" enable-background="new -21.7 90 612 612" xml:space="preserve">
<g id="Document" transform="scale(1 -1)">
	<g id="Spread" transform="translate(0 -36)">
		<g id="Layer_1__x28_2_x29_">
			<g id="Group">
				<polygon fill="none" points="-21.7,-54 590.3,-54 590.3,-54 				"/>
				<path marker-end="none" marker-start="none" fill="#005EB9" d="M284.3-663.7C239-641.1,152.8-530,109.8-441.6
					c-11.3,24.9-24.9,52.1-34,77.1v2.3l-4.5,15.9c-4.5,18.1-6.8,38.5-6.8,58.9C64.4-158.3,166.4-54,293.4-54
					s228.9-104.3,228.9-233.5c0-18.1-2.3-36.3-6.8-52.1c-2.3-9.1-11.3-15.9-20.4-13.6c-9.1,2.3-15.9,11.3-13.6,20.4
					c2.3,13.6,4.5,29.5,4.5,45.3C486-176.4,397.6-88,291.1-88S96.2-176.4,96.2-287.5c0-22.7,4.5-45.3,11.3-65.7v-2.3l6.8-15.9
					c6.8-18.1,15.9-36.3,24.9-56.7c36.3-77.1,106.5-163.2,145.1-197.2l6.8-4.5l6.8,4.5C336.4-593.5,406.7-505.1,443-428
					c2.3,4.5,4.5,9.1,6.8,13.6c4.5,9.1,13.6,11.3,22.7,6.8s11.3-13.6,6.8-22.7c-2.3-4.5-4.5-9.1-6.8-13.6
					C429.4-532.3,341-643.3,297.9-666C295.6-666,288.8-666,284.3-663.7z M148.3-282.9c0,79.3,65.7,145.1,145.1,145.1
					s145.1-65.7,145.1-145.1S372.7-428,293.4-428C211.8-425.7,148.3-362.3,148.3-282.9z M402.2-282.9c0,61.2-49.9,111.1-111.1,111.1
					c-61.2,0-111.1-49.9-111.1-111.1c0-61.2,49.9-111.1,111.1-111.1C352.3-391.7,402.2-344.1,402.2-282.9z"/>
			</g>
		</g>
	</g>
</g>
</svg>
