<?xml version="1.0" encoding="utf-8"?>
<!-- Generator: Adobe Illustrator 18.1.1, SVG Export Plug-In . SVG Version: 6.00 Build 0)  -->
<svg version="1.1" id="Layer_1" xmlns="http://www.w3.org/2000/svg" xmlns:xlink="http://www.w3.org/1999/xlink" x="0px" y="0px"
	 viewBox="242 389.5 12 12" enable-background="new 242 389.5 12 12" xml:space="preserve">
<g id="Document" transform="scale(1 -1)">
	<g id="Spread" transform="translate(0 -36)">
		<g id="Layer_1__x28_2_x29_">
			<g id="Group">
				<rect x="242" y="-353.5" fill="none" width="12" height="-12"/>
				<path marker-end="none" marker-start="none" fill="#FFFFFF" d="M244.4-361c-0.3,0.5-0.5,1.1-0.7,1.6l0,0c-0.2,0.5-0.3,1-0.3,1.5
					c0,2.5,2,4.5,4.5,4.5s4.5-2,4.5-4.5c0-0.5-0.1-1-0.3-1.5l0,0c-0.2-0.5-0.4-1-0.7-1.6c-0.9-1.8-2.7-4-3.6-4.5
					C247.2-365.1,245.4-362.9,244.4-361z M250.3-358c0,1.2-1,2.3-2.3,2.3s-2.3-1-2.3-2.3s1-2.3,2.3-2.3S250.3-359.2,250.3-358z"/>
			</g>
		</g>
	</g>
</g>
</svg>
