<?xml version="1.0" encoding="utf-8"?>
<!-- Generator: Adobe Illustrator 18.1.1, SVG Export Plug-In . SVG Version: 6.00 Build 0)  -->
<svg version="1.1" id="Layer_1" xmlns="http://www.w3.org/2000/svg" xmlns:xlink="http://www.w3.org/1999/xlink" x="0px" y="0px"
	 viewBox="273.3 388.3 24 24" enable-background="new 273.3 388.3 24 24" xml:space="preserve">
<g id="Document" transform="scale(1 -1)">
	<g id="Spread" transform="translate(0 -37.5)">
		<g id="icons">
			<g id="Group">
				<rect x="273.3" y="-350.8" fill="none" width="24" height="-24"/>
				<path marker-end="none" marker-start="none" fill="#FFFFFF" d="M284.5-371.8l0,1.5c-2.1,0.1-4,0.5-5.4,1.1
					c-1.3,0.6-2.4,1.5-2.8,2.6h-1.6c-0.4,0-0.8,0.3-0.8,0.8c0,0.4,0.3,0.8,0.8,0.8h1.6c0.4,1.4,2,2.4,3.9,3c0.4,0.1,0.8-0.1,0.9-0.5
					c0.1-0.4-0.1-0.8-0.5-0.9c-1.4-0.4-2.2-1-2.6-1.5h1.9c0.4,0,0.8-0.3,0.8-0.8c0-0.4-0.3-0.8-0.8-0.8h-2c0.3-0.4,0.8-0.8,1.7-1.2
					c1.2-0.5,2.9-0.9,4.8-1l0,0.7c0,0.4,0.3,0.8,0.8,0.8c0.4,0,0.8-0.3,0.8-0.8v-0.7c1.9,0.1,3.6,0.5,4.8,1c0.9,0.4,1.4,0.8,1.7,1.2
					h-2c-0.4,0-0.8,0.3-0.8,0.8c0,0.4,0.3,0.8,0.8,0.8h1.9c-0.4,0.5-1.3,1.1-2.6,1.5c-0.4,0.1-0.6,0.5-0.5,0.9
					c0.1,0.4,0.5,0.6,0.9,0.5c1.8-0.6,3.4-1.6,3.9-3h1.6c0.4,0,0.8-0.3,0.8-0.8c0-0.4-0.3-0.8-0.8-0.8h-1.6c-0.3-1.1-1.5-2-2.8-2.6
					c-1.4-0.6-3.3-1.1-5.4-1.1v-1.5c0-0.4-0.3-0.8-0.8-0.8C284.8-372.5,284.5-372.2,284.5-371.8z M285.2-365.8
					C285.2-365.8,285.2-365.7,285.2-365.8l-0.1,0c0,0,0,0-0.1,0c0,0-0.1,0-0.1,0c-0.1,0-0.1,0.1-0.1,0c-0.1,0-0.1,0.1-0.1,0l0,0
					c0,0-0.1,0.1,0,0c-0.1,0.1-0.1,0.1-0.1,0.1c-0.1,0.1-0.1,0.1-0.1,0.1l-3.5,4.7c0,0,0,0.1-0.1,0.1c0,0,0,0-0.1,0.1
					c-0.7,0.9-1,2-1,3.1c0,2.9,2.4,5.3,5.3,5.3c2.9,0,5.3-2.4,5.3-5.3c0-1.2-0.4-2.3-1-3.1c0,0,0,0-0.1-0.1c0,0,0-0.1-0.1-0.1
					l-3.5-4.7l0,0c0,0,0,0-0.1-0.1c0,0,0,0-0.1-0.1c0.1,0,0,0,0,0l0,0c0,0,0,0-0.1,0c0.1,0,0,0-0.1,0c0,0,0,0-0.1,0c0.1,0,0,0,0,0
					C285.4-365.7,285.3-365.8,285.2-365.8C285.3-365.8,285.3-365.8,285.2-365.8z M285.2-365.7C285.2-365.7,285.2-365.8,285.2-365.7
					L285.2-365.7L285.2-365.7z M285.2-365.7L285.2-365.7L285.2-365.7L285.2-365.7z M284.6-365.5L284.6-365.5L284.6-365.5
					C284.7-365.5,284.7-365.5,284.6-365.5z M285.8-365.5L285.8-365.5C285.9-365.4,285.8-365.4,285.8-365.5z M285.2-363.8l2.9,3.9
					c0,0,0,0,0.1,0.1c0,0,0,0,0,0.1c0.5,0.6,0.7,1.4,0.7,2.2c0,2.1-1.7,3.8-3.8,3.8c-2.1,0-3.8-1.7-3.8-3.8c0-0.8,0.3-1.6,0.7-2.2
					c0,0,0,0,0-0.1c0,0,0,0,0.1-0.1L285.2-363.8z"/>
			</g>
		</g>
	</g>
</g>
</svg>
