<?xml version="1.0" encoding="utf-8"?>
<!-- Generator: Adobe Illustrator 18.1.1, SVG Export Plug-In . SVG Version: 6.00 Build 0)  -->
<svg version="1.1" id="Layer_1" xmlns="http://www.w3.org/2000/svg" xmlns:xlink="http://www.w3.org/1999/xlink" x="0px" y="0px"
	 viewBox="0 153.5 614.7 614.7" enable-background="new 0 153.5 614.7 614.7" xml:space="preserve">
<ellipse fill="#005EB8" cx="307.4" cy="460.9" rx="307.4" ry="307.4"/>
<path marker-end="none" marker-start="none" fill="#FFFFFF" d="M144.2,539.7V395.6l152.3,100.6c0,0,0,0,2.7,2.7c0,0,0,0,2.7,0
	c0,0,0,0,2.7,0h2.7c2.7,0,2.7,0,2.7,0s0,0,2.7,0h2.7h2.7c2.7,0,2.7,0,2.7,0c2.7-2.7,2.7-2.7,2.7-2.7L476,395.6v144.2
	c0,24.5-19,43.5-43.5,43.5H190.4C163.2,583.3,144.2,564.2,144.2,539.7z M299.2,498.9L299.2,498.9
	C299.2,498.9,296.5,498.9,299.2,498.9z M315.5,498.9L315.5,498.9C318.2,498.9,315.5,498.9,315.5,498.9z M307.4,455.4l-155-103.4
	c8.2-10.9,19-16.3,32.6-16.3H427c13.6,0,24.5,5.4,32.6,16.3L307.4,455.4z"/>
</svg>
