<?xml version="1.0" encoding="utf-8"?>
<!-- Generator: Adobe Illustrator 18.1.1, SVG Export Plug-In . SVG Version: 6.00 Build 0)  -->
<svg version="1.1" id="Layer_1" xmlns="http://www.w3.org/2000/svg" xmlns:xlink="http://www.w3.org/1999/xlink" x="0px" y="0px"
	 viewBox="7.6 165.5 614.7 614.7" enable-background="new 7.6 165.5 614.7 614.7" xml:space="preserve">
<ellipse fill="#005EB8" cx="314.9" cy="472.9" rx="307.4" ry="307.4"/>
<path marker-end="none" marker-start="none" fill="#FFFFFF" d="M151.7,472.9c0-21.8,19-40.8,40.8-40.8s40.8,19,40.8,40.8
	c0,21.8-19,40.8-40.8,40.8S151.7,494.6,151.7,472.9z M274.1,472.9c0-21.8,19-40.8,40.8-40.8s40.8,19,40.8,40.8
	c0,21.8-19,40.8-40.8,40.8S274.1,494.6,274.1,472.9z M396.5,472.9c0-21.8,19-40.8,40.8-40.8c21.8,0,40.8,19,40.8,40.8
	c0,21.8-19,40.8-40.8,40.8C415.6,513.7,396.5,494.6,396.5,472.9z"/>
</svg>
