<?xml version="1.0" encoding="utf-8"?>
<!-- Generator: Adobe Illustrator 18.1.1, SVG Export Plug-In . SVG Version: 6.00 Build 0)  -->
<svg version="1.1" id="Layer_1" xmlns="http://www.w3.org/2000/svg" xmlns:xlink="http://www.w3.org/1999/xlink" x="0px" y="0px"
	 viewBox="441.3 387.5 22.5 22.5" enable-background="new 441.3 387.5 22.5 22.5" xml:space="preserve">
<g id="Group">
	<ellipse fill="#DDDDDD" cx="452.5" cy="398.8" rx="11.3" ry="11.3"/>
	<path marker-end="none" marker-start="none" fill="#FFFFFF" d="M446.5,398.8c0-0.8,0.7-1.5,1.5-1.5s1.5,0.7,1.5,1.5
		s-0.7,1.5-1.5,1.5S446.5,399.6,446.5,398.8z M451,398.8c0-0.8,0.7-1.5,1.5-1.5s1.5,0.7,1.5,1.5s-0.7,1.5-1.5,1.5
		S451,399.6,451,398.8z M455.5,398.8c0-0.8,0.7-1.5,1.5-1.5s1.5,0.7,1.5,1.5s-0.7,1.5-1.5,1.5S455.5,399.6,455.5,398.8z"/>
</g>
</svg>
