<?xml version="1.0" encoding="utf-8"?>
<!-- Generator: Adobe Illustrator 18.1.1, SVG Export Plug-In . SVG Version: 6.00 Build 0)  -->
<svg version="1.1" id="Layer_1" xmlns="http://www.w3.org/2000/svg" xmlns:xlink="http://www.w3.org/1999/xlink" x="0px" y="0px"
	 viewBox="266 389.5 12 12" enable-background="new 266 389.5 12 12" xml:space="preserve">
<g id="Document" transform="scale(1 -1)">
	<g id="Spread" transform="translate(0 -36)">
		<g id="Layer_1__x28_2_x29_">
			<g id="Group">
				<rect x="266" y="-353.5" fill="none" width="12" height="-12"/>
				<path marker-end="none" marker-start="none" fill="#FFFFFF" d="M268.9-361.8c-3.4,3.4-3.5,6.3-1.6,8.1c0.3,0.3,0.7,0.3,1,0
					l1.6-2.3c0.3-0.3,0.3-0.7,0-1l-0.5-0.5c-0.6-0.6,0-1.6,0.5-2.1l1.3-1.3c0.6-0.5,1.6-1.1,2.1-0.5l0.5,0.5c0.3,0.3,0.7,0.3,1,0
					l2.3-1.6c0.3-0.3,0.3-0.7,0-1C275.2-365.3,272.5-365.4,268.9-361.8z"/>
			</g>
		</g>
	</g>
</g>
</svg>
