<?xml version="1.0" encoding="utf-8"?>
<!-- Generator: Adobe Illustrator 18.1.1, SVG Export Plug-In . SVG Version: 6.00 Build 0)  -->
<svg version="1.1" id="Layer_1" xmlns="http://www.w3.org/2000/svg" xmlns:xlink="http://www.w3.org/1999/xlink" x="0px" y="0px"
	 viewBox="-26.5 382 21 21" enable-background="new -26.5 382 21 21" xml:space="preserve">
<g id="Document" transform="scale(1 -1)">
	<g id="Spread" transform="translate(0 -36)">
		<g id="Layer_1__x28_2_x29_">
			<g id="Group">
				<rect x="-26.5" y="-346" fill="none" width="21" height="-21"/>
				<path marker-start="none" marker-end="none" fill="#BFBFBF" d="M-17.2-366.9l-0.4,0l-1.2,2.6l-0.6,0.2c-0.6,0.3-1.1,0.6-1.6,0.9
					l-0.4,0.4l-2.8-0.3l-0.3,0.3c-0.5,0.6-0.9,1.3-1.2,2l-0.2,0.4l1.7,2.3l-0.1,0.6c0,0.3-0.1,0.6-0.1,0.9c0,0.3,0,0.6,0.1,0.9
					l0.1,0.6l-1.7,2.3l0.2,0.4c0.3,0.7,0.7,1.4,1.2,2l0.3,0.3l2.8-0.3l0.4,0.4c0.5,0.4,1,0.7,1.6,0.9l0.6,0.2l1.2,2.6l0.4,0
					c0.4,0,0.8,0.1,1.2,0.1c0.4,0,0.8,0,1.2-0.1l0.4,0l1.2-2.6l0.5-0.2c0.6-0.3,1.1-0.6,1.6-0.9l0.4-0.4l2.8,0.3l0.3-0.3
					c0.5-0.6,0.9-1.3,1.2-2l0.2-0.4l-1.7-2.3l0.1-0.6c0-0.3,0.1-0.6,0.1-0.9c0-0.3,0-0.6-0.1-0.9l-0.1-0.6l1.7-2.3l-0.2-0.4
					c-0.3-0.7-0.7-1.4-1.2-2l-0.3-0.3l-2.8,0.3l-0.4-0.4c-0.5-0.4-1-0.7-1.6-0.9l-0.6-0.2l-1.2-2.6l-0.4,0c-0.4,0-0.8-0.1-1.2-0.1
					S-16.8-367-17.2-366.9z M-16-365.5l0.6,0l1.1,2.4l0.3,0.1c1,0.3,1.9,0.8,2.6,1.5l0.3,0.2l2.6-0.3l0.3,0.5l0.3,0.5l-1.6,2.1
					l0.1,0.3c0.1,0.5,0.2,1,0.2,1.5c0,0.5-0.1,1-0.2,1.5l-0.1,0.3l1.6,2.1l-0.3,0.5l-0.3,0.5l-2.6-0.3l-0.3,0.2
					c-0.7,0.7-1.6,1.2-2.6,1.5l-0.3,0.1l-1.1,2.4l-0.6,0l-0.6,0l-1.1-2.4L-18-350c-1-0.3-1.9-0.8-2.6-1.5l-0.3-0.2l-2.6,0.3
					l-0.3-0.5l-0.3-0.5l1.6-2.1l-0.1-0.3c-0.1-0.5-0.2-1-0.2-1.5c0-0.5,0.1-1,0.2-1.5l0.1-0.3l-1.6-2.1l0.3-0.5l0.3-0.5l2.6,0.3
					l0.3-0.2c0.7-0.7,1.6-1.2,2.6-1.5l0.3-0.1l1.1-2.4L-16-365.5z M-19-356.5c0,1.7,1.3,3,3,3c1.7,0,3-1.3,3-3c0-1.7-1.3-3-3-3
					C-17.7-359.5-19-358.2-19-356.5z M-14.5-356.5c0,0.8-0.7,1.5-1.5,1.5c-0.8,0-1.5-0.7-1.5-1.5c0-0.8,0.7-1.5,1.5-1.5
					C-15.2-358-14.5-357.3-14.5-356.5z"/>
			</g>
		</g>
	</g>
</g>
</svg>
