<?xml version="1.0" encoding="utf-8"?>
<!-- Generator: Adobe Illustrator 18.1.1, SVG Export Plug-In . SVG Version: 6.00 Build 0)  -->
<svg version="1.1" id="Capa_1" xmlns="http://www.w3.org/2000/svg" xmlns:xlink="http://www.w3.org/1999/xlink" x="0px" y="0px"
	 viewBox="-49 192.5 512 409" enable-background="new -49 192.5 512 409" xml:space="preserve">
<g>
	<path fill="#005EB8" d="M-49,397c0-4.3,3.5-7.8,7.8-7.8h496.3c4.3,0,7.8,3.5,7.8,7.8c0,4.3-3.5,7.8-7.8,7.8H-41.2
		C-45.5,404.8-49,401.3-49,397z"/>
	<path fill="#005EB8" d="M250.6,593.7c0-2,0.8-4,2.3-5.6L444.1,397L252.9,205.9c-3.1-3.1-3.1-8,0-11.1s8-3.1,11.1,0l196.7,196.7
		c1.5,1.5,2.3,3.5,2.3,5.5l0,0c0,2.1-0.8,4.1-2.3,5.6L264,599.2c-3.1,3.1-8,3.1-11.1,0C251.4,597.7,250.6,595.7,250.6,593.7z"/>
</g>
</svg>
