<?xml version="1.0" encoding="utf-8"?>
<!-- Generator: Adobe Illustrator 18.1.1, SVG Export Plug-In . SVG Version: 6.00 Build 0)  -->
<svg version="1.1" id="Capa_1" xmlns="http://www.w3.org/2000/svg" xmlns:xlink="http://www.w3.org/1999/xlink" x="0px" y="0px"
	 viewBox="0 295 612 488.9" enable-background="new 0 295 612 488.9" xml:space="preserve">
<g>
	<path fill="#A6A6A6" d="M615.1,539.3c0,5.1-4.2,9.3-9.3,9.3l-593.2,0.5c-5.1,0-9.3-4.2-9.3-9.3s4.2-9.3,9.3-9.3l593.2-0.5
		C610.9,529.9,615.1,534.1,615.1,539.3z"/>
	<path fill="#A6A6A6" d="M256.8,304.4c0,2.4-1,4.8-2.7,6.7L25.7,539.7L254.4,768c3.7,3.7,3.7,9.6,0,13.3c-3.7,3.7-9.6,3.7-13.3,0
		L5.8,546.3c-1.8-1.8-2.8-4.2-2.8-6.6l0,0c0-2.5,1-4.9,2.7-6.7l234.9-235.2c3.7-3.7,9.6-3.7,13.3,0
		C255.8,299.6,256.8,302,256.8,304.4z"/>
</g>
</svg>
