<?xml version="1.0" encoding="utf-8"?>
<!-- Generator: Adobe Illustrator 18.1.1, SVG Export Plug-In . SVG Version: 6.00 Build 0)  -->
<svg version="1.1" id="Capa_1" xmlns="http://www.w3.org/2000/svg" xmlns:xlink="http://www.w3.org/1999/xlink" x="0px" y="0px"
	 viewBox="3.1 246.7 612.1 489.1" enable-background="new 3.1 246.7 612.1 489.1" xml:space="preserve">
<g>
	<path fill="#A6A6A6" d="M3.1,490.9c0-5.1,4.2-9.3,9.3-9.3l593.2,0.4c5.1,0,9.3,4.2,9.3,9.3c0,5.1-4.2,9.3-9.3,9.3l-593.2-0.4
		C7.3,500.3,3.1,496.1,3.1,490.9z"/>
	<path fill="#A6A6A6" d="M361.1,726.3c0-2.4,1-4.8,2.7-6.7l228.7-228.3L364.2,262.7c-3.7-3.7-3.7-9.6,0-13.3c3.7-3.7,9.6-3.7,13.3,0
		l235,235.3c1.8,1.8,2.8,4.2,2.8,6.6l0,0c0,2.5-1,4.9-2.7,6.7L377.3,733c-3.7,3.7-9.6,3.7-13.3,0
		C362.1,731.1,361.1,728.7,361.1,726.3z"/>
</g>
</svg>
