<?xml version="1.0" encoding="utf-8"?>
<!-- Generator: Adobe Illustrator 18.1.1, SVG Export Plug-In . SVG Version: 6.00 Build 0)  -->
<svg version="1.1" id="Capa_1" xmlns="http://www.w3.org/2000/svg" xmlns:xlink="http://www.w3.org/1999/xlink" x="0px" y="0px"
	 viewBox="64.4 186 489.1 612.1" enable-background="new 64.4 186 489.1 612.1" xml:space="preserve">
<g>
	<path fill="#A6A6A6" d="M309.3,186c5.1,0,9.3,4.2,9.3,9.3l-0.4,593.1c0,5.1-4.2,9.3-9.3,9.3c-5.1,0-9.3-4.2-9.3-9.3l0.4-593.1
		C299.9,190.2,304.1,186,309.3,186z"/>
	<path fill="#A6A6A6" d="M73.9,544c2.4,0,4.8,1,6.7,2.7l228.3,228.7l228.6-228.3c3.7-3.7,9.6-3.7,13.3,0s3.7,9.6,0,13.3l-235.3,235
		c-1.8,1.8-4.2,2.8-6.6,2.8l0,0c-2.5,0-4.9-1-6.7-2.7l-235-235.3c-3.7-3.7-3.7-9.6,0-13.3C69.1,545,71.5,544,73.9,544z"/>
</g>
</svg>
