<?xml version="1.0" encoding="utf-8"?>
<!-- Generator: Adobe Illustrator 18.1.1, SVG Export Plug-In . SVG Version: 6.00 Build 0)  -->
<svg version="1.1" id="Capa_1" xmlns="http://www.w3.org/2000/svg" xmlns:xlink="http://www.w3.org/1999/xlink" x="0px" y="0px"
	 viewBox="20.6 210.6 372.6 372.6" enable-background="new 20.6 210.6 372.6 372.6" xml:space="preserve">
<path fill="#A6A6A6" d="M26,241.8c-7.1-7.1-6.9-18.6,0.2-25.8c7.1-7.1,18.5-7.1,25.6,0l155.1,155.1L362.1,216c7.1-7.1,18.8-7.1,26,0
	c7.1,7.1,6.9,18.6-0.2,25.8L232.7,396.9l155.1,155.1c7.1,7.1,7.3,18.6,0.2,25.8c-7.1,7.1-18.8,7.1-26,0L206.9,422.7L51.7,577.8
	c-7.1,7.1-18.6,7.3-25.8,0.2c-7.1-7.1-7.1-18.8,0-26l155.2-155.2L26,241.8z"/>
</svg>
