<?xml version="1.0" encoding="utf-8"?>
<!-- Generator: Adobe Illustrator 18.1.1, SVG Export Plug-In . SVG Version: 6.00 Build 0)  -->
<svg version="1.1" id="Layer_1" xmlns="http://www.w3.org/2000/svg" xmlns:xlink="http://www.w3.org/1999/xlink" x="0px" y="0px"
	 viewBox="8.9 103.5 486.2 585.1" enable-background="new 8.9 103.5 486.2 585.1" xml:space="preserve">
<g id="Group">
	<path marker-end="none" marker-start="none" fill="#BFBFBF" d="M8.9,630.5V164.7c0-34,27.2-61.2,61.2-61.2h272
		c6.8,0,13.6,3.4,17,6.8l129.2,129.2c3.4,3.4,6.8,10.2,6.8,17v23.8l0,0l0,0v346.8c0,34-27.2,61.2-61.2,61.2H66.7
		C32.7,691.7,8.9,664.5,8.9,630.5z M440.7,630.5v-323H314.9c-13.6,0-27.2-10.2-27.2-27.2V154.5h-221c-3.4,0-10.2,3.4-10.2,10.2
		v465.8c0,3.4,3.4,10.2,10.2,10.2h363.8C437.3,640.7,440.7,633.9,440.7,630.5z M110.9,511.5c0-13.6,10.2-27.2,27.2-27.2h231.2
		c13.6,0,27.2,10.2,27.2,27.2c0,13.6-10.2,27.2-27.2,27.2H134.7C121.1,538.7,110.9,525.1,110.9,511.5z M110.9,436.7
		c0-13.6,10.2-27.2,27.2-27.2h231.2c13.6,0,27.2,10.2,27.2,27.2c0,13.6-10.2,27.2-27.2,27.2H134.7
		C121.1,460.5,110.9,450.3,110.9,436.7z M110.9,358.5c0-13.6,10.2-27.2,27.2-27.2h231.2c13.6,0,27.2,10.2,27.2,27.2
		c0,13.6-10.2,27.2-27.2,27.2H134.7C121.1,385.7,110.9,372.1,110.9,358.5z M107.5,283.7c0-13.6,10.2-27.2,27.2-27.2h102
		c13.6,0,27.2,10.2,27.2,27.2c0,13.6-10.2,27.2-27.2,27.2h-102C121.1,307.5,107.5,297.3,107.5,283.7z M430.5,256.5l-91.8-91.8v91.8
		H430.5z"/>
</g>
</svg>
