<?xml version="1.0" encoding="utf-8"?>
<!-- Generator: Adobe Illustrator 18.1.1, SVG Export Plug-In . SVG Version: 6.00 Build 0)  -->
<svg version="1.1" id="Layer_1" xmlns="http://www.w3.org/2000/svg" xmlns:xlink="http://www.w3.org/1999/xlink" x="0px" y="0px"
	 viewBox="481 389.8 18 18" enable-background="new 481 389.8 18 18" xml:space="preserve">
<g id="Document" transform="scale(1 -1)">
	<g id="Spread" transform="translate(0 -37.5)">
		<g id="icons">
			<g id="Group">
				<rect x="481" y="-352.3" fill="none" width="18" height="-18"/>
				<path marker-end="none" marker-start="none" fill="#404040" d="M482.5-368.5v14.5c0,1,0.8,1.8,1.8,1.8h8c0.2,0,0.4-0.1,0.5-0.2
					l3.8-3.8c0.1-0.1,0.2-0.3,0.2-0.5l0-11.7c0-1-0.8-1.8-1.8-1.8h-10.7C483.3-370.3,482.5-369.5,482.5-368.5z M493.8-365.8
					c0,0.4-0.3,0.8-0.8,0.8h-6.8c-0.4,0-0.8-0.3-0.8-0.8c0-0.4,0.3-0.8,0.8-0.8h6.8C493.4-366.5,493.8-366.2,493.8-365.8z
					 M493.8-362.8c0,0.4-0.3,0.8-0.8,0.8h-6.8c-0.4,0-0.8-0.3-0.8-0.8c0-0.4,0.3-0.8,0.8-0.8h6.8
					C493.4-363.5,493.8-363.2,493.8-362.8z M493.8-359.8c0,0.4-0.3,0.8-0.8,0.8h-6.8c-0.4,0-0.8-0.3-0.8-0.8c0-0.4,0.3-0.8,0.8-0.8
					h6.8C493.4-360.5,493.8-360.2,493.8-359.8z M490-356.8c0,0.4-0.3,0.8-0.8,0.8h-3c-0.4,0-0.8-0.3-0.8-0.8c0-0.4,0.3-0.8,0.8-0.8
					h3C489.7-357.5,490-357.2,490-356.8z M495.3-357.5v0.7h-0.7l0,0v0.7h-0.7l0,0v0.7H493l0,0v0.7h-0.7l0,0v0.7h-0.7l0,0v0h0v-0.7h0
					v-1.5c0-1,0.5-1.5,1.5-1.5H495.3z"/>
			</g>
		</g>
	</g>
</g>
</svg>
