<?xml version="1.0" encoding="utf-8"?>
<!-- Generator: Adobe Illustrator 18.1.1, SVG Export Plug-In . SVG Version: 6.00 Build 0)  -->
<svg version="1.1" id="Layer_1" xmlns="http://www.w3.org/2000/svg" xmlns:xlink="http://www.w3.org/1999/xlink" x="0px" y="0px"
	 viewBox="244.8 386.7 19.5 24" enable-background="new 244.8 386.7 19.5 24" xml:space="preserve">
<g id="Document" transform="scale(1 -1)">
	<g id="Spread" transform="translate(0 -37.5)">
		<g id="icons">
			<path marker-end="none" marker-start="none" fill="#0082CB" d="M244.8-370.7v19c0,1.4,1.1,2.5,2.5,2.5h14.5
				c1.4,0,2.5-1.1,2.5-2.5v-19c0-1.4-1.1-2.5-2.5-2.5h-14.5C245.9-373.3,244.8-372.1,244.8-370.7z M262-361.3c0,4.1-3.4,7.5-7.5,7.5
				s-7.5-3.4-7.5-7.5c0-4.1,3.4-7.5,7.5-7.5S262-365.4,262-361.3z M250.2-365.5c-0.3,0.3-0.3,0.8,0,1.1l1.3,1.3v3.9l-1.3,1.3
				c-0.3,0.3-0.3,0.8,0,1.1s0.8,0.3,1.1,0l1.5-1.5c0,0,0,0,0.1-0.1c-0.1,0.1,0,0,0,0c0,0,0,0,0.1-0.1v0c0,0,0,0.1,0,0c0,0,0,0,0,0
				c0,0,0,0,0,0c0,0,0,0,0,0c0,0,0,0,0-0.1c0,0.1,0,0,0,0c0,0,0,0,0-0.1c0,0.1,0,0,0,0v-4.5l0,0c0,0,0,0,0-0.1l0,0c0,0,0,0,0,0l0,0
				c0,0,0,0,0,0l0,0c0,0,0,0,0,0c0,0,0,0,0,0c0,0,0,0,0,0c0,0,0,0,0-0.1c0,0.1,0,0.1,0,0c0,0,0,0,0,0c0,0,0,0,0,0c0,0,0,0,0,0
				c0-0.1-0.1-0.2-0.2-0.2l-1.5-1.5C251-365.8,250.5-365.8,250.2-365.5z M257.7-365.5l-1.5,1.5c-0.2,0.1-0.2,0.3-0.2,0.5v1.5h-0.7
				c-0.4,0-0.8,0.3-0.8,0.8c0,0.4,0.3,0.8,0.8,0.8h0.7v1.5c0,0.2,0.1,0.4,0.2,0.5l1.5,1.5c0.3,0.3,0.8,0.3,1.1,0s0.3-0.8,0-1.1
				l-1.3-1.3v-3.9l1.3-1.3c0.3-0.3,0.3-0.8,0-1.1S258-365.8,257.7-365.5z M253-363.6C253-363.6,253-363.6,253-363.6L253-363.6
				C253-363.6,253-363.6,253-363.6z M253-363.6L253-363.6C253-363.6,253-363.6,253-363.6C253-363.6,253-363.6,253-363.6z"/>
		</g>
	</g>
</g>
</svg>
