<?xml version="1.0" encoding="utf-8"?>
<!-- Generator: Adobe Illustrator 18.1.1, SVG Export Plug-In . SVG Version: 6.00 Build 0)  -->
<svg version="1.1" id="Layer_1" xmlns="http://www.w3.org/2000/svg" xmlns:xlink="http://www.w3.org/1999/xlink" x="0px" y="0px"
	 viewBox="67 386 21 25.5" enable-background="new 67 386 21 25.5" xml:space="preserve">
<g id="Document" transform="scale(1 -1)">
	<g id="Spread" transform="translate(0 -37.5)">
		<g id="icons">
			<path marker-end="none" marker-start="none" fill="#0082CB" d="M67-370.7v19c0,1.8,1.5,3.3,3.3,3.3h14.5c1.8,0,3.3-1.5,3.3-3.3
				v-19c0-1.8-1.5-3.3-3.3-3.3H70.3C68.5-374,67-372.5,67-370.7z M86.5-370.7v19c0,1-0.8,1.8-1.8,1.8H70.3c-1,0-1.8-0.8-1.8-1.8v-19
				c0-1,0.8-1.8,1.8-1.8h14.5C85.7-372.5,86.5-371.7,86.5-370.7z M69.3-361.3c0,4.5,3.7,8.2,8.2,8.2c4.6,0,8.2-3.7,8.2-8.2
				c0-4.6-3.7-8.2-8.2-8.2C72.9-369.5,69.3-365.8,69.3-361.3z M84.2-361.3c0,3.7-3,6.7-6.7,6.7c-3.7,0-6.7-3-6.7-6.7
				c0-3.7,3-6.7,6.7-6.7C81.2-368,84.2-365,84.2-361.3z M73.2-365.5c-0.3,0.3-0.3,0.8,0,1.1l1.3,1.3v3.9l-1.3,1.3
				c-0.3,0.3-0.3,0.8,0,1.1s0.8,0.3,1.1,0l1.5-1.5c0,0,0.1-0.1,0.2-0.2c-0.1,0.2,0,0.1,0,0c0,0,0,0,0.1-0.3c0,0.2,0,0.1,0,0v-4.5
				l0,0c0,0,0,0,0-0.1l0,0c0,0,0,0,0,0c0,0,0,0,0,0c0,0,0,0,0,0c0,0,0,0,0,0c0,0,0,0,0-0.1c0,0.1,0,0.1,0,0c0,0,0,0,0,0c0,0,0,0,0,0
				c0,0,0,0,0,0c0-0.1-0.1-0.2-0.2-0.2l-1.5-1.5C74-365.8,73.5-365.8,73.2-365.5z M80.7-365.5l-1.5,1.5c-0.2,0.1-0.2,0.3-0.2,0.5
				v1.5h-0.7c-0.4,0-0.8,0.3-0.8,0.8c0,0.4,0.3,0.8,0.8,0.8H79v1.5c0,0.2,0.1,0.4,0.2,0.5l1.5,1.5c0.3,0.3,0.8,0.3,1.1,0
				s0.3-0.8,0-1.1l-1.3-1.3v-3.9l1.3-1.3c0.3-0.3,0.3-0.8,0-1.1S81-365.8,80.7-365.5z"/>
		</g>
	</g>
</g>
</svg>
