<?xml version="1.0" encoding="utf-8"?>
<!-- Generator: Adobe Illustrator 18.1.1, SVG Export Plug-In . SVG Version: 6.00 Build 0)  -->
<svg version="1.1" id="Layer_1" xmlns="http://www.w3.org/2000/svg" xmlns:xlink="http://www.w3.org/1999/xlink" x="0px" y="0px"
	 viewBox="0 101.3 612 612" enable-background="new 0 101.3 612 612" xml:space="preserve">
<g id="Document" transform="scale(1 -1)">
	<g id="Spread" transform="translate(0 -37.5)">
		<g id="icons">
			<path marker-end="none" marker-start="none" fill="#0082CB" d="M0-369.8c0,169,137,306,306,306s306-137,306-306s-137-306-306-306
				S0-535.9,0-369.8z M568.3-369.8c0,145.7-116.6,262.3-262.3,262.3S43.7-224.1,43.7-369.8S160.3-632.1,306-632.1
				S568.3-512.6,568.3-369.8z M241.9-500.9c0,11.7,8.7,23.3,23.3,23.3h23.3v154.5h-26.2c-11.7,0-23.3,8.7-23.3,23.3
				c0,11.7,8.7,23.3,23.3,23.3H306c11.7,0,23.3-8.7,23.3-23.3v-174.9h20.4c11.7,0,23.3-8.7,23.3-23.3c0-11.7-8.7-23.3-23.3-23.3
				h-87.4C250.6-521.3,241.9-512.6,241.9-500.9z M285.6-238.7c0,11.7,8.7,23.3,23.3,23.3c14.6,0,23.3-8.7,23.3-23.3
				s-8.7-23.3-23.3-23.3C294.3-262,285.6-250.3,285.6-238.7z"/>
		</g>
	</g>
</g>
</svg>
