<?xml version="1.0" encoding="utf-8"?>
<!-- Generator: Adobe Illustrator 18.1.1, SVG Export Plug-In . SVG Version: 6.00 Build 0)  -->
<svg version="1.1" id="Layer_1" xmlns="http://www.w3.org/2000/svg" xmlns:xlink="http://www.w3.org/1999/xlink" x="0px" y="0px"
	 viewBox="33.3 388.3 21 21" enable-background="new 33.3 388.3 21 21" xml:space="preserve">
<g id="Document" transform="scale(1 -1)">
	<g id="Spread" transform="translate(0 -37.5)">
		<g id="icons">
			<g id="Group">
				<rect x="33.3" y="-350.8" fill="none" width="21" height="-21"/>
				<path marker-end="none" marker-start="none" fill="#0082CB" d="M46-371.5v11c0,0.4-0.3,0.7-0.7,0.7h-3c-0.4,0-0.7-0.3-0.7-0.7
					l0-11c-4.7,1-8.2,5.2-8.2,10.3c0,5.8,4.7,10.5,10.5,10.5s10.5-4.7,10.5-10.5C54.3-366.3,50.7-370.5,46-371.5z M45.9-356
					L45.9-356c0,1.2-1,2.1-2.1,2.1h0c-1.2,0-2.1-1-2.1-2.1v0c0-1.2,1-2.1,2.1-2.1h0C44.9-358.1,45.9-357.2,45.9-356z"/>
			</g>
		</g>
	</g>
</g>
</svg>
