<?xml version="1.0" encoding="utf-8"?>
<!-- Generator: Adobe Illustrator 18.1.1, SVG Export Plug-In . SVG Version: 6.00 Build 0)  -->
<svg version="1.1" id="Layer_1" xmlns="http://www.w3.org/2000/svg" xmlns:xlink="http://www.w3.org/1999/xlink" x="0px" y="0px"
	 viewBox="174.2 385.2 24.8 24.8" enable-background="new 174.2 385.2 24.8 24.8" xml:space="preserve">
<g id="Document" transform="scale(1 -1)">
	<g id="Spread" transform="translate(0 -37.5)">
		<g id="icons">
			<path marker-end="none" marker-start="none" fill="#0082CB" d="M179-371.8c-2.4,0.4-3.6,1.8-4,4l0,0c-0.9,5.5-0.8,10.6,0,15.3
				l0,0.1c0.6,2.2,1.7,3.6,4,4c5.2,0.9,10.3,0.9,15.3,0c2.5-0.5,3.6-1.8,4-4c0.9-4.8,0.9-9.9,0-15.3c-0.4-2.4-1.6-3.5-4-4
				C189.2-372.7,184.1-372.7,179-371.8z M194-370.3c1.9,0.4,2.5,1.1,2.9,2.8c0.9,5.2,0.8,10.1,0,14.8c-0.3,1.7-1.1,2.5-2.8,2.8
				c-4.9,0.9-9.8,0.9-14.8,0c-1.4-0.2-2.2-0.9-2.7-2.3l-0.2-0.6l-0.3-1.7c-0.5-3.5-0.5-7.1,0-11.1l0.3-2l0.2-0.6
				c0.4-1.3,1.2-2,2.7-2.3C184.2-371.2,189.1-371.2,194-370.3z M178.7-360.1c0,4.3,3.5,7.9,7.9,7.9c4.3,0,7.9-3.5,7.9-7.9
				c0-4.3-3.5-7.9-7.9-7.9C182.3-368,178.7-364.5,178.7-360.1z M191.5-363.7v1.2c0,0.3-0.2,0.5-0.5,0.5h-8.7c-0.3,0-0.5-0.2-0.5-0.5
				v-1.2c0-0.3,0.2-0.5,0.5-0.5h8.7C191.3-364.3,191.5-364,191.5-363.7z M191.5-360.7v1.2c0,0.3-0.2,0.5-0.5,0.5h-8.7
				c-0.3,0-0.5-0.2-0.5-0.5v-1.2c0-0.3,0.2-0.5,0.5-0.5h8.7C191.3-361.3,191.5-361,191.5-360.7z M191.5-357.7v1.2
				c0,0.3-0.2,0.5-0.5,0.5h-8.7c-0.3,0-0.5-0.2-0.5-0.5v-1.2c0-0.3,0.2-0.5,0.5-0.5h8.7C191.3-358.3,191.5-358,191.5-357.7z"/>
		</g>
	</g>
</g>
</svg>
