<?xml version="1.0" encoding="utf-8"?>
<!-- Generator: Adobe Illustrator 18.1.1, SVG Export Plug-In . SVG Version: 6.00 Build 0)  -->
<svg version="1.1" id="Layer_1" xmlns="http://www.w3.org/2000/svg" xmlns:xlink="http://www.w3.org/1999/xlink" x="0px" y="0px"
	 viewBox="210.2 386 24 24" enable-background="new 210.2 386 24 24" xml:space="preserve">
<g id="Document" transform="scale(1 -1)">
	<g id="Spread" transform="translate(0 -37.5)">
		<g id="icons">
			<path marker-end="none" marker-start="none" fill="#0082CB" d="M214.5-371.8c-2.1,0.4-3.1,1.5-3.6,3.5c-0.9,5.6-0.8,10.7,0,15.5
				c0.5,2.1,1.5,3.2,3.6,3.5c5.2,0.9,10.4,0.9,15.5,0c2.2-0.4,3.2-1.5,3.6-3.5c0.9-4.9,0.9-10,0-15.5c-0.4-2.2-1.3-3.1-3.6-3.5
				C224.9-372.7,219.7-372.7,214.5-371.8z M232-360.5c0,5.4-4.4,9.8-9.7,9.8c-5.4,0-9.7-4.4-9.7-9.8c0-5.4,4.4-9.8,9.7-9.8
				C227.6-370.3,232-365.9,232-360.5z M214-360.5c0,4.6,3.7,8.3,8.2,8.3c4.6,0,8.2-3.7,8.2-8.3c0-4.6-3.7-8.3-8.2-8.3
				C217.7-368.8,214-365.1,214-360.5z M227.5-365.2v1.9c0,0.3-0.2,0.5-0.5,0.5h-9.4c-0.3,0-0.5-0.2-0.5-0.5v-1.9
				c0-0.3,0.2-0.5,0.5-0.5h9.4C227.3-365.8,227.5-365.5,227.5-365.2z M227.5-361.5v1.9c0,0.3-0.2,0.5-0.5,0.5h-9.4
				c-0.3,0-0.5-0.2-0.5-0.5v-1.9c0-0.3,0.2-0.5,0.5-0.5h9.4C227.3-362,227.5-361.8,227.5-361.5z M227.5-357.7v1.9
				c0,0.3-0.2,0.5-0.5,0.5h-9.4c-0.3,0-0.5-0.2-0.5-0.5v-1.9c0-0.3,0.2-0.5,0.5-0.5h9.4C227.3-358.3,227.5-358,227.5-357.7z"/>
		</g>
	</g>
</g>
</svg>
