<?xml version="1.0" encoding="utf-8"?>
<!-- Generator: Adobe Illustrator 18.1.1, SVG Export Plug-In . SVG Version: 6.00 Build 0)  -->
<svg version="1.1" id="Layer_1" xmlns="http://www.w3.org/2000/svg" xmlns:xlink="http://www.w3.org/1999/xlink" x="0px" y="0px"
	 viewBox="103 386 24 24" enable-background="new 103 386 24 24" xml:space="preserve">
<g id="Document" transform="scale(1 -1)">
	<g id="Spread" transform="translate(0 -37.5)">
		<g id="icons">
			<path marker-end="none" marker-start="none" fill="#0082CB" d="M107.6-371.8c-2.3,0.4-3.5,1.8-3.9,3.9l0,0
				c-0.9,5.3-0.8,10.2,0,14.8l0,0.1c0.6,2.2,1.7,3.5,3.9,3.9c5,0.9,9.9,0.9,14.8,0c2.4-0.5,3.5-1.7,3.9-3.9c0.8-4.7,0.9-9.6,0-14.8
				c-0.4-2.4-1.5-3.4-3.9-3.9C117.5-372.7,112.6-372.7,107.6-371.8z M122.1-370.3c1.8,0.4,2.4,1,2.7,2.7c0.9,5,0.8,9.8,0,14.3
				c-0.3,1.6-1,2.4-2.7,2.7c-4.7,0.8-9.5,0.8-14.3,0c-1.4-0.2-2.1-0.9-2.6-2.2l-0.2-0.6l-0.3-1.6c-0.4-3.4-0.5-6.9,0-10.7l0.3-1.9
				l0.1-0.6c0.4-1.3,1.1-1.9,2.6-2.2C112.7-371.2,117.4-371.2,122.1-370.3z M106.7-360.5c0,4.6,3.7,8.3,8.3,8.3
				c4.6,0,8.3-3.7,8.3-8.3c0-4.6-3.7-8.3-8.3-8.3C110.4-368.8,106.7-365.1,106.7-360.5z M121.8-360.5c0,3.7-3,6.8-6.8,6.8
				c-3.7,0-6.8-3-6.8-6.8c0-3.7,3-6.8,6.8-6.8C118.7-367.3,121.8-364.2,121.8-360.5z M110.5-363.7v0.4c0,0.3,0.2,0.5,0.5,0.5h7.9
				c0.3,0,0.5-0.2,0.5-0.5v-0.4c0-0.3-0.2-0.5-0.5-0.5H111C110.7-364.3,110.5-364,110.5-363.7z M110.5-360.7v0.4
				c0,0.3,0.2,0.5,0.5,0.5h7.9c0.3,0,0.5-0.2,0.5-0.5v-0.4c0-0.3-0.2-0.5-0.5-0.5H111C110.7-361.3,110.5-361,110.5-360.7z
				 M110.5-357.7v0.4c0,0.3,0.2,0.5,0.5,0.5h7.9c0.3,0,0.5-0.2,0.5-0.5v-0.4c0-0.3-0.2-0.5-0.5-0.5H111
				C110.7-358.3,110.5-358,110.5-357.7z"/>
		</g>
	</g>
</g>
</svg>
