<?xml version="1.0" encoding="utf-8"?>
<!-- Generator: Adobe Illustrator 18.1.1, SVG Export Plug-In . SVG Version: 6.00 Build 0)  -->
<svg version="1.1" id="Layer_1" xmlns="http://www.w3.org/2000/svg" xmlns:xlink="http://www.w3.org/1999/xlink" x="0px" y="0px"
	 viewBox="139.7 385.2 25.5 25.5" enable-background="new 139.7 385.2 25.5 25.5" xml:space="preserve">
<g id="Document" transform="scale(1 -1)">
	<g id="Spread" transform="translate(0 -37.5)">
		<g id="icons">
			<path marker-end="none" marker-start="none" fill="#0082CB" d="M144.6-372.5c-2.5,0.4-3.7,1.9-4.2,4.1l0,0
				c-0.9,5.7-0.9,10.9,0,15.8l0,0.1c0.6,2.3,1.8,3.7,4.2,4.1c5.3,0.9,10.6,0.9,15.8,0c2.5-0.5,3.7-1.8,4.2-4.1c0.9-5,1-10.2,0-15.8
				c-0.4-2.5-1.6-3.6-4.2-4.2C155.2-373.5,149.9-373.5,144.6-372.5z M160.1-371.1c1.9,0.4,2.6,1.1,3,2.9c0.9,5.4,0.9,10.5,0,15.2
				c-0.3,1.7-1.1,2.6-3,3c-5,0.9-10.1,0.9-15.3,0c-1.5-0.2-2.3-0.9-2.8-2.4l-0.2-0.6l-0.3-1.7c-0.5-3.6-0.5-7.4,0-11.4l0.3-2
				l0.2-0.6c0.4-1.4,1.2-2.1,2.8-2.3C150-372,155.1-372,160.1-371.1z M143.5-360.5c0,5,4,9,9,9c5,0,9-4,9-9s-4-9-9-9
				C147.5-369.5,143.5-365.5,143.5-360.5z M157.8-365.2v1.9c0,0.3-0.2,0.5-0.5,0.5h-9.4c-0.3,0-0.5-0.2-0.5-0.5v-1.9
				c0-0.3,0.2-0.5,0.5-0.5h9.4C157.5-365.8,157.8-365.5,157.8-365.2z M157.8-361.5v1.9c0,0.3-0.2,0.5-0.5,0.5h-9.4
				c-0.3,0-0.5-0.2-0.5-0.5v-1.9c0-0.3,0.2-0.5,0.5-0.5h9.4C157.5-362,157.8-361.8,157.8-361.5z M157.8-357.7v1.9
				c0,0.3-0.2,0.5-0.5,0.5h-9.4c-0.3,0-0.5-0.2-0.5-0.5v-1.9c0-0.3,0.2-0.5,0.5-0.5h9.4C157.5-358.3,157.8-358,157.8-357.7z"/>
		</g>
	</g>
</g>
</svg>
