<?xml version="1.0" encoding="utf-8"?>
<!-- Generator: Adobe Illustrator 18.1.1, SVG Export Plug-In . SVG Version: 6.00 Build 0)  -->
<svg version="1.1" id="Layer_1" xmlns="http://www.w3.org/2000/svg" xmlns:xlink="http://www.w3.org/1999/xlink" x="0px" y="0px"
	 viewBox="90.5 383.5 18.8 18.8" enable-background="new 90.5 383.5 18.8 18.8" xml:space="preserve">
<g id="Document" transform="scale(1 -1)">
	<g id="Spread" transform="translate(0 -36)">
		<g id="Layer_1__x28_2_x29_">
			<path marker-end="none" marker-start="none" fill="#B5B5B5" d="M90.5-356.9c0,5.2,4.2,9.4,9.4,9.4c5.2,0,9.4-4.2,9.4-9.4
				c0-5.2-4.2-9.4-9.4-9.4C94.7-366.2,90.5-362,90.5-356.9z M107.8-356.9c0,4.4-3.5,7.9-7.9,7.9c-4.4,0-7.9-3.5-7.9-7.9
				c0-4.4,3.5-7.9,7.9-7.9C104.2-364.7,107.8-361.2,107.8-356.9z M100.3-360.2c0,0,0,0.1,0,0.1l-3.2,1.7c-0.4-0.3-0.8-0.4-1.3-0.4
				c-1.2,0-2.3,1-2.3,2.3c0,1.2,1,2.3,2.3,2.3c0.6,0,1.1-0.2,1.5-0.6l3,1.3c0,0,0,0.1,0,0.1c0,1.2,1,2.3,2.3,2.3
				c1.2,0,2.3-1,2.3-2.3c0-1.2-1-2.3-2.3-2.3c-0.7,0-1.3,0.3-1.7,0.8l-2.8-1.2c0-0.1,0-0.2,0-0.3c0-0.2,0-0.4-0.1-0.6l3-1.6
				c0.4,0.5,1,0.7,1.7,0.7c1.2,0,2.3-1,2.3-2.3c0-1.2-1-2.3-2.3-2.3C101.3-362.4,100.3-361.4,100.3-360.2z M103.3-360.2
				c0,0.4-0.3,0.8-0.8,0.8c-0.4,0-0.8-0.3-0.8-0.8c0-0.4,0.3-0.8,0.8-0.8C103-360.9,103.3-360.6,103.3-360.2z M96.5-356.5
				c0,0.4-0.3,0.8-0.8,0.8c-0.4,0-0.8-0.3-0.8-0.8c0-0.4,0.3-0.8,0.8-0.8C96.2-357.3,96.5-356.9,96.5-356.5z M103.3-353.5
				c0,0.4-0.3,0.8-0.8,0.8c-0.4,0-0.8-0.3-0.8-0.8c0-0.4,0.3-0.8,0.8-0.8C102.9-354.3,103.3-353.9,103.3-353.5z"/>
		</g>
	</g>
</g>
</svg>
