<?xml version="1.0" encoding="utf-8"?>
<!-- Generator: Adobe Illustrator 18.1.1, SVG Export Plug-In . SVG Version: 6.00 Build 0)  -->
<svg version="1.1" id="Layer_1" xmlns="http://www.w3.org/2000/svg" xmlns:xlink="http://www.w3.org/1999/xlink" x="0px" y="0px"
	 viewBox="125.8 377.5 28.5 28.5" enable-background="new 125.8 377.5 28.5 28.5" xml:space="preserve">
<g id="Document" transform="scale(1 -1)">
	<g id="Spread" transform="translate(0 -36)">
		<g id="Layer_1__x28_2_x29_">
			<g id="Group">
				<rect x="125.8" y="-341.5" fill="none" width="28.5" height="-28.5"/>
				<path marker-end="none" marker-start="none" fill="#B5B5B5" d="M137.8-367.8l0,4.5l-9.8,0c-0.4,0-0.7,0.3-0.7,0.8v11.5
					c0,2.8,2.1,4.2,4.1,4.2h3.4v2.3h-1.5c-0.4,0-0.8,0.3-0.8,0.8c0,0.4,0.3,0.8,0.8,0.8h2.3c0.4,0,0.8-0.3,0.8-0.8v-3l9,0
					c0,0,0.1,0,0.1,0c0,0,0,0,0.1,0c1.7,0.1,3.6-0.9,4.1-2.9c0.5,0.1,0.9,0.2,1.4,0.1c1.7-0.1,3.1-1.5,2.5-3.5c0,0,0-0.1,0-0.1
					l-4.5-9.8l-0.1-0.1c0,0,0-0.1-0.1-0.1c0.1,0.1,0.1,0.1-0.1-0.1c0.1,0,0,0-0.1-0.1c0.1,0.1,0,0-0.1,0c0,0-0.1,0-0.1,0h0h-9l0-4.5
					c0-0.4-0.3-0.8-0.8-0.8C138.1-368.5,137.8-368.2,137.8-367.8z M138.5-361.8L138.5-361.8L138.5-361.8h3l0,10.8
					c0,1.1,0.3,2,0.9,2.7l-6.1,0l0-5.2c0-0.4-0.3-0.8-0.8-0.8c-0.4,0-0.8,0.3-0.8,0.8v5.2h-3.4c-1.3,0-2.6-0.9-2.6-2.7v-10.8
					L138.5-361.8z M147.8-361.8l4.3,9.2l0,0.3c0.1,0.8-0.5,1.2-1.3,1.2c-0.9,0.1-2.1-0.4-3-1.6l-0.4-0.6l-4-8.6H147.8z M143-359.1
					l3.1,6.6l0,0.1c0.6,1,1.3,1.7,2.1,2.2c-0.3,1.4-1.5,2-2.7,2c-1.3-0.1-2.5-0.9-2.5-2.7V-359.1z"/>
			</g>
		</g>
	</g>
</g>
</svg>
