<?xml version="1.0" standalone="no"?>
<!DOCTYPE svg PUBLIC "-//W3C//DTD SVG 1.1//EN" "http://www.w3.org/Graphics/SVG/1.1/DTD/svg11.dtd">
<!--Generator: Xara Xtreme (www.xara.com), SVG filter version: 1.0.0.13-->
<svg stroke-width="0.501" stroke-linejoin="bevel" fill-rule="evenodd" xmlns:xlink="http://www.w3.org/1999/xlink" xmlns="http://www.w3.org/2000/svg" version="1.1" overflow="visible" width="507pt" height="36pt" viewBox="0 0 507 36">
 <defs>
  <marker id="DefaultArrow2" markerUnits="strokeWidth" viewBox="0 0 1 1" markerWidth="1" markerHeight="1" overflow="visible" orient="auto">
   <!-- REF_ARROW_STRAIGHT (-2) -->
   <g transform="scale(0.0092592592)">
    <!-- 1/108 -->
    <path d="M -9 54 L -9 -54 L 117 0 z"/>
   </g>
  </marker>
  <marker id="DefaultArrow3" markerUnits="strokeWidth" viewBox="0 0 1 1" markerWidth="1" markerHeight="1" overflow="visible" orient="auto">
   <!-- REF_ARROW_ANGLED -->
   <g transform="scale(0.0092592592)">
    <path d="M -27 54 L -9 0 L -27 -54 L 135 0 z"/>
   </g>
  </marker>
  <marker id="DefaultArrow4" markerUnits="strokeWidth" viewBox="0 0 1 1" markerWidth="1" markerHeight="1" overflow="visible" orient="auto">
   <!-- REF_ARROW_ROUNDED -->
   <g transform="scale(0.0092592592)">
    <path d="M -9,0 L -9,-45 C -9,-51.708 2.808,-56.580 9,-54 L 117,-9 C 120.916,-7.369 126.000,-4.242 126,0 C 126,4.242 120.916,7.369 117,9 L 9,54 C 2.808,56.580 -9,51.708 -9,45 z"/>
   </g>
  </marker>
  <marker id="DefaultArrow5" markerUnits="strokeWidth" viewBox="0 0 1 1" markerWidth="1" markerHeight="1" overflow="visible" orient="auto">
   <!-- REF_ARROW_SPOT -->
   <g transform="scale(0.0092592592)">
    <path d="M -54, 0 C -54,29.807 -29.807,54 0,54 C 29.807,54 54,29.807 54,0 C 54,-29.807 29.807,-54 0,-54 C -29.807,-54 -54,-29.807 -54,0 z"/>
   </g>
  </marker>
  <marker id="DefaultArrow6" markerUnits="strokeWidth" viewBox="0 0 1 1" markerWidth="1" markerHeight="1" overflow="visible" orient="auto">
   <!-- REF_ARROW_DIAMOND -->
   <g transform="scale(0.0092592592)">
    <path d="M -63,0 L 0,63 L 63,0 L 0,-63 z"/>
   </g>
  </marker>
  <marker id="DefaultArrow7" markerUnits="strokeWidth" viewBox="0 0 1 1" markerWidth="1" markerHeight="1" overflow="visible" orient="auto">
   <!-- REF_ARROW_FEATHER -->
   <g transform="scale(0.0092592592)">
    <path d="M 18,-54 L 108,-54 L 63,0 L 108,54 L 18, 54 L -36,0 z"/>
   </g>
  </marker>
  <marker id="DefaultArrow8" markerUnits="strokeWidth" viewBox="0 0 1 1" markerWidth="1" markerHeight="1" overflow="visible" orient="auto">
   <!-- REF_ARROW_FEATHER2 -->
   <g transform="scale(0.0092592592)">
    <path d="M -36,0 L 18,-54 L 54,-54 L 18,-18 L 27,-18 L 63,-54 L 99,-54 L 63,-18 L 72,-18 L 108,-54 L 144,-54 L 90,0 L 144,54 L 108,54 L 72,18 L 63,18 L 99,54 L 63,54 L 27,18 L 18,18 L 54,54 L 18,54 z"/>
   </g>
  </marker>
  <marker id="DefaultArrow9" markerUnits="strokeWidth" viewBox="0 0 1 1" markerWidth="1" markerHeight="1" overflow="visible" orient="auto">
   <!-- REF_ARROW_HOLLOWDIAMOND -->
   <g transform="scale(0.0092592592)">
    <path d="M 0,45 L -45,0 L 0, -45 L 45, 0 z M 0, 63 L-63, 0 L 0, -63 L 63, 0 z"/>
   </g>
  </marker>
  <filter id="StainedFilter">
   <feBlend mode="multiply" in2="BackgroundImage" in="SourceGraphic" result="blend"/>
   <feComposite in="blend" in2="SourceAlpha" operator="in" result="comp"/>
  </filter>
  <filter id="BleachFilter">
   <feBlend mode="screen" in2="BackgroundImage" in="SourceGraphic" result="blend"/>
   <feComposite in="blend" in2="SourceAlpha" operator="in" result="comp"/>
  </filter>
  <filter id="InvertTransparencyBitmapFilter">
   <feComponentTransfer>
    <feFuncR type="gamma" amplitude="1.055" exponent=".416666666" offset="-0.055"/>
    <feFuncG type="gamma" amplitude="1.055" exponent=".416666666" offset="-0.055"/>
    <feFuncB type="gamma" amplitude="1.055" exponent=".416666666" offset="-0.055"/>
   </feComponentTransfer>
   <feComponentTransfer>
    <feFuncR type="linear" slope="-1" intercept="1"/>
    <feFuncG type="linear" slope="-1" intercept="1"/>
    <feFuncB type="linear" slope="-1" intercept="1"/>
    <feFuncA type="linear" slope="1" intercept="0"/>
   </feComponentTransfer>
   <feComponentTransfer>
    <feFuncR type="gamma" amplitude="1" exponent="2.4" offset="0"/>
    <feFuncG type="gamma" amplitude="1" exponent="2.4" offset="0"/>
    <feFuncB type="gamma" amplitude="1" exponent="2.4" offset="0"/>
   </feComponentTransfer>
  </filter>
 </defs>
 <g id="Document" fill="none" stroke="black" font-family="Times New Roman" font-size="16" transform="scale(1 -1)">
  <g id="Spread" transform="translate(0 -36)">
   <g id="Layer 1 (2)">
    <g id="Group" stroke="none">
     <rect x="3.75" y="15.001" width="16.501" height="16.499" stroke-opacity="0.290196" stroke-linejoin="miter"/>
     <path d="M 11.084,15.05 L 10.659,15.1 L 9.484,17.765 C 9.339,18.094 8.868,18.366 8.51,18.327 L 5.61,18.01 L 5.354,18.358 C 4.995,18.846 4.688,19.374 4.441,19.935 L 4.266,20.331 L 5.993,22.688 C 6.205,22.978 6.204,23.522 5.993,23.811 L 4.266,26.168 L 4.441,26.565 C 4.688,27.124 4.995,27.652 5.354,28.14 L 5.61,28.487 L 8.509,28.172 C 8.867,28.133 9.338,28.404 9.483,28.734 L 10.657,31.402 L 11.087,31.449 C 11.386,31.482 11.69,31.5 12,31.5 C 12.307,31.5 12.612,31.482 12.91,31.449 L 13.339,31.402 L 14.517,28.735 C 14.662,28.407 15.133,28.134 15.49,28.173 L 18.387,28.488 L 18.643,28.141 C 19.002,27.653 19.31,27.124 19.556,26.564 L 19.731,26.168 L 18.007,23.812 C 17.794,23.522 17.794,22.979 18.007,22.689 L 19.732,20.332 L 19.557,19.936 C 19.31,19.375 19.004,18.849 18.645,18.36 L 18.389,18.011 L 15.491,18.328 C 15.134,18.367 14.663,18.095 14.518,17.767 L 13.34,15.095 L 12.91,15.048 C 12.609,15.014 12.304,14.999 12,14.999 C 11.695,14.999 11.389,15.014 11.084,15.05 Z M 12,16.5 L 12.326,16.517 L 13.145,18.372 C 13.554,19.3 14.645,19.93 15.654,19.821 L 17.666,19.6 L 17.844,19.873 L 17.993,20.166 L 16.796,21.802 C 16.197,22.62 16.197,23.881 16.796,24.699 L 17.992,26.333 L 17.843,26.626 L 17.664,26.899 L 15.653,26.68 C 14.644,26.571 13.551,27.202 13.144,28.13 L 12.326,29.981 L 12,29.999 L 11.671,29.98 L 10.856,28.129 C 10.447,27.199 9.354,26.57 8.346,26.679 L 6.332,26.898 L 6.154,26.625 L 6.005,26.333 L 7.204,24.698 C 7.803,23.881 7.802,22.619 7.204,21.801 L 6.004,20.165 L 6.154,19.872 L 6.332,19.599 L 8.347,19.82 C 9.357,19.929 10.448,19.297 10.857,18.37 L 11.673,16.518 L 12,16.5 Z M 9,23.25 C 9,24.906 10.343,26.25 12,26.25 C 13.656,26.25 15,24.906 15,23.25 C 15,21.593 13.656,20.25 12,20.25 C 10.343,20.25 9,21.593 9,23.25 Z M 13.5,23.25 C 13.5,24.077 12.827,24.75 12,24.75 C 11.172,24.75 10.5,24.077 10.5,23.25 C 10.5,22.422 11.172,21.75 12,21.75 C 12.827,21.75 13.5,22.422 13.5,23.25 Z" stroke-width="0.5" fill="#bfbfbf" fill-rule="evenodd" marker-start="none" marker-end="none" stroke-miterlimit="79.8403193612775"/>
    </g>
   </g>
  </g>
 </g>
</svg>
