<?xml version="1.0" standalone="no"?>
<!DOCTYPE svg PUBLIC "-//W3C//DTD SVG 1.1//EN" "http://www.w3.org/Graphics/SVG/1.1/DTD/svg11.dtd">
<!--Generator: Xara Xtreme (www.xara.com), SVG filter version: 1.0.0.13-->
<svg stroke-width="0.501" stroke-linejoin="bevel" fill-rule="evenodd" xmlns:xlink="http://www.w3.org/1999/xlink" xmlns="http://www.w3.org/2000/svg" version="1.1" overflow="visible" width="36pt" height="36pt" viewBox="0 0 36 36">
 <defs>
  <marker id="DefaultArrow2" markerUnits="strokeWidth" viewBox="0 0 1 1" markerWidth="1" markerHeight="1" overflow="visible" orient="auto">
   <!-- REF_ARROW_STRAIGHT (-2) -->
   <g transform="scale(0.0092592592)">
    <!-- 1/108 -->
    <path d="M -9 54 L -9 -54 L 117 0 z"/>
   </g>
  </marker>
  <marker id="DefaultArrow3" markerUnits="strokeWidth" viewBox="0 0 1 1" markerWidth="1" markerHeight="1" overflow="visible" orient="auto">
   <!-- REF_ARROW_ANGLED -->
   <g transform="scale(0.0092592592)">
    <path d="M -27 54 L -9 0 L -27 -54 L 135 0 z"/>
   </g>
  </marker>
  <marker id="DefaultArrow4" markerUnits="strokeWidth" viewBox="0 0 1 1" markerWidth="1" markerHeight="1" overflow="visible" orient="auto">
   <!-- REF_ARROW_ROUNDED -->
   <g transform="scale(0.0092592592)">
    <path d="M -9,0 L -9,-45 C -9,-51.708 2.808,-56.580 9,-54 L 117,-9 C 120.916,-7.369 126.000,-4.242 126,0 C 126,4.242 120.916,7.369 117,9 L 9,54 C 2.808,56.580 -9,51.708 -9,45 z"/>
   </g>
  </marker>
  <marker id="DefaultArrow5" markerUnits="strokeWidth" viewBox="0 0 1 1" markerWidth="1" markerHeight="1" overflow="visible" orient="auto">
   <!-- REF_ARROW_SPOT -->
   <g transform="scale(0.0092592592)">
    <path d="M -54, 0 C -54,29.807 -29.807,54 0,54 C 29.807,54 54,29.807 54,0 C 54,-29.807 29.807,-54 0,-54 C -29.807,-54 -54,-29.807 -54,0 z"/>
   </g>
  </marker>
  <marker id="DefaultArrow6" markerUnits="strokeWidth" viewBox="0 0 1 1" markerWidth="1" markerHeight="1" overflow="visible" orient="auto">
   <!-- REF_ARROW_DIAMOND -->
   <g transform="scale(0.0092592592)">
    <path d="M -63,0 L 0,63 L 63,0 L 0,-63 z"/>
   </g>
  </marker>
  <marker id="DefaultArrow7" markerUnits="strokeWidth" viewBox="0 0 1 1" markerWidth="1" markerHeight="1" overflow="visible" orient="auto">
   <!-- REF_ARROW_FEATHER -->
   <g transform="scale(0.0092592592)">
    <path d="M 18,-54 L 108,-54 L 63,0 L 108,54 L 18, 54 L -36,0 z"/>
   </g>
  </marker>
  <marker id="DefaultArrow8" markerUnits="strokeWidth" viewBox="0 0 1 1" markerWidth="1" markerHeight="1" overflow="visible" orient="auto">
   <!-- REF_ARROW_FEATHER2 -->
   <g transform="scale(0.0092592592)">
    <path d="M -36,0 L 18,-54 L 54,-54 L 18,-18 L 27,-18 L 63,-54 L 99,-54 L 63,-18 L 72,-18 L 108,-54 L 144,-54 L 90,0 L 144,54 L 108,54 L 72,18 L 63,18 L 99,54 L 63,54 L 27,18 L 18,18 L 54,54 L 18,54 z"/>
   </g>
  </marker>
  <marker id="DefaultArrow9" markerUnits="strokeWidth" viewBox="0 0 1 1" markerWidth="1" markerHeight="1" overflow="visible" orient="auto">
   <!-- REF_ARROW_HOLLOWDIAMOND -->
   <g transform="scale(0.0092592592)">
    <path d="M 0,45 L -45,0 L 0, -45 L 45, 0 z M 0, 63 L-63, 0 L 0, -63 L 63, 0 z"/>
   </g>
  </marker>
  <filter id="StainedFilter">
   <feBlend mode="multiply" in2="BackgroundImage" in="SourceGraphic" result="blend"/>
   <feComposite in="blend" in2="SourceAlpha" operator="in" result="comp"/>
  </filter>
  <filter id="BleachFilter">
   <feBlend mode="screen" in2="BackgroundImage" in="SourceGraphic" result="blend"/>
   <feComposite in="blend" in2="SourceAlpha" operator="in" result="comp"/>
  </filter>
  <filter id="InvertTransparencyBitmapFilter">
   <feComponentTransfer>
    <feFuncR type="gamma" amplitude="1.055" exponent=".416666666" offset="-0.055"/>
    <feFuncG type="gamma" amplitude="1.055" exponent=".416666666" offset="-0.055"/>
    <feFuncB type="gamma" amplitude="1.055" exponent=".416666666" offset="-0.055"/>
   </feComponentTransfer>
   <feComponentTransfer>
    <feFuncR type="linear" slope="-1" intercept="1"/>
    <feFuncG type="linear" slope="-1" intercept="1"/>
    <feFuncB type="linear" slope="-1" intercept="1"/>
    <feFuncA type="linear" slope="1" intercept="0"/>
   </feComponentTransfer>
   <feComponentTransfer>
    <feFuncR type="gamma" amplitude="1" exponent="2.4" offset="0"/>
    <feFuncG type="gamma" amplitude="1" exponent="2.4" offset="0"/>
    <feFuncB type="gamma" amplitude="1" exponent="2.4" offset="0"/>
   </feComponentTransfer>
  </filter>
 </defs>
 <g id="Document" fill="none" stroke="black" font-family="Times New Roman" font-size="16" transform="scale(1 -1)">
  <g id="Spread" transform="translate(0 -36)">
   <g id="all_icons">
    <path d="M 5.249,5.708 L 5.25,26.25 C 5.25,26.448 5.329,26.639 5.469,26.78 L 9.969,31.28 C 10.262,31.573 10.737,31.573 11.03,31.28 C 11.323,30.987 11.323,30.512 11.03,30.219 L 6.749,25.939 L 6.749,5.707 C 6.749,4.627 7.627,3.749 8.708,3.749 L 28.041,3.749 C 29.121,3.749 30,4.627 30,5.708 L 30,11.252 C 30.007,12.358 29.465,13.175 28.144,13.699 C 26.754,14.251 24.56,14.437 21.49,14.119 C 21.078,14.076 20.709,14.375 20.667,14.787 C 20.624,15.199 20.923,15.568 21.335,15.61 C 24.485,15.938 26.969,15.779 28.697,15.093 C 30.494,14.38 31.511,13.066 31.5,11.247 L 31.5,5.708 C 31.5,3.798 29.95,2.249 28.041,2.249 L 8.708,2.249 C 6.798,2.249 5.249,3.798 5.249,5.708 Z M 9.62,9.438 C 9.56,9.478 9.506,9.528 9.46,9.584 C 8.614,10.614 9.132,11.765 9.753,12.471 C 10.392,13.198 11.358,13.801 12.193,14.135 C 13.167,14.551 14.5,14.909 15.694,14.997 C 16.107,15.028 16.467,14.718 16.497,14.305 C 16.528,13.892 16.218,13.532 15.805,13.502 C 14.793,13.426 13.62,13.114 12.766,12.748 C 12.077,12.473 11.327,11.99 10.879,11.48 C 10.65,11.22 10.446,10.906 10.561,10.63 L 10.656,10.578 C 11.175,10.37 12.095,10.405 13.337,10.938 C 14.695,11.52 16.224,12.621 17.534,14.182 C 19.522,16.55 21.123,19.902 21.75,24.296 C 21.999,26.177 21.156,26.987 20.628,27 C 20.244,27.009 19.596,26.675 19.546,25.159 C 19.546,23.787 19.994,22.741 20.283,22.026 C 20.438,21.642 20.252,21.204 19.869,21.049 C 19.485,20.894 19.047,21.08 18.892,21.463 C 18.607,22.168 18.046,23.462 18.046,25.184 C 18.11,27.096 19.119,28.536 20.663,28.499 C 22.461,28.456 23.546,26.435 23.237,24.091 C 22.572,19.439 20.867,15.819 18.683,13.217 C 15.913,9.918 11.737,8.01 9.62,9.438 Z M 25.667,9.996 C 24.584,10.374 23.541,11.18 22.736,12.251 C 22.487,12.582 22.554,13.052 22.885,13.301 C 23.216,13.55 23.686,13.483 23.935,13.152 C 24.594,12.276 25.407,11.676 26.161,11.413 C 26.864,11.167 27.495,11.212 27.961,11.588 C 28.283,11.848 28.755,11.798 29.015,11.475 C 29.275,11.153 29.225,10.681 28.902,10.421 C 27.963,9.663 26.763,9.614 25.667,9.996 Z M 30,18 L 30,30.291 C 30,31.371 29.121,32.25 28.041,32.25 L 14.25,32.25 L 14.25,25.5 C 14.25,25.086 13.913,24.75 13.5,24.75 L 9,24.75 C 8.586,24.75 8.25,25.086 8.25,25.5 C 8.25,25.913 8.586,26.25 9,26.25 L 12.75,26.25 L 12.75,33 C 12.75,33.413 13.086,33.75 13.5,33.75 L 28.041,33.75 C 29.95,33.75 31.5,32.2 31.5,30.291 L 31.5,18 C 31.5,17.586 31.163,17.25 30.75,17.25 C 30.336,17.25 30,17.586 30,18 Z" stroke-width="0.5" stroke="none" fill="#0165c6" fill-rule="evenodd" marker-start="none" marker-end="none" stroke-miterlimit="79.8403193612775"/>
   </g>
  </g>
 </g>
</svg>
