<?xml version="1.0" standalone="no"?>
<!DOCTYPE svg PUBLIC "-//W3C//DTD SVG 1.1//EN" "http://www.w3.org/Graphics/SVG/1.1/DTD/svg11.dtd">
<!--Generator: Xara Xtreme (www.xara.com), SVG filter version: 1.0.0.13-->
<svg stroke-width="0.501" stroke-linejoin="bevel" fill-rule="evenodd" xmlns:xlink="http://www.w3.org/1999/xlink" xmlns="http://www.w3.org/2000/svg" version="1.1" overflow="visible" width="507pt" height="36pt" viewBox="0 0 507 36">
 <defs>
  <marker id="DefaultArrow2" markerUnits="strokeWidth" viewBox="0 0 1 1" markerWidth="1" markerHeight="1" overflow="visible" orient="auto">
   <!-- REF_ARROW_STRAIGHT (-2) -->
   <g transform="scale(0.0092592592)">
    <!-- 1/108 -->
    <path d="M -9 54 L -9 -54 L 117 0 z"/>
   </g>
  </marker>
  <marker id="DefaultArrow3" markerUnits="strokeWidth" viewBox="0 0 1 1" markerWidth="1" markerHeight="1" overflow="visible" orient="auto">
   <!-- REF_ARROW_ANGLED -->
   <g transform="scale(0.0092592592)">
    <path d="M -27 54 L -9 0 L -27 -54 L 135 0 z"/>
   </g>
  </marker>
  <marker id="DefaultArrow4" markerUnits="strokeWidth" viewBox="0 0 1 1" markerWidth="1" markerHeight="1" overflow="visible" orient="auto">
   <!-- REF_ARROW_ROUNDED -->
   <g transform="scale(0.0092592592)">
    <path d="M -9,0 L -9,-45 C -9,-51.708 2.808,-56.580 9,-54 L 117,-9 C 120.916,-7.369 126.000,-4.242 126,0 C 126,4.242 120.916,7.369 117,9 L 9,54 C 2.808,56.580 -9,51.708 -9,45 z"/>
   </g>
  </marker>
  <marker id="DefaultArrow5" markerUnits="strokeWidth" viewBox="0 0 1 1" markerWidth="1" markerHeight="1" overflow="visible" orient="auto">
   <!-- REF_ARROW_SPOT -->
   <g transform="scale(0.0092592592)">
    <path d="M -54, 0 C -54,29.807 -29.807,54 0,54 C 29.807,54 54,29.807 54,0 C 54,-29.807 29.807,-54 0,-54 C -29.807,-54 -54,-29.807 -54,0 z"/>
   </g>
  </marker>
  <marker id="DefaultArrow6" markerUnits="strokeWidth" viewBox="0 0 1 1" markerWidth="1" markerHeight="1" overflow="visible" orient="auto">
   <!-- REF_ARROW_DIAMOND -->
   <g transform="scale(0.0092592592)">
    <path d="M -63,0 L 0,63 L 63,0 L 0,-63 z"/>
   </g>
  </marker>
  <marker id="DefaultArrow7" markerUnits="strokeWidth" viewBox="0 0 1 1" markerWidth="1" markerHeight="1" overflow="visible" orient="auto">
   <!-- REF_ARROW_FEATHER -->
   <g transform="scale(0.0092592592)">
    <path d="M 18,-54 L 108,-54 L 63,0 L 108,54 L 18, 54 L -36,0 z"/>
   </g>
  </marker>
  <marker id="DefaultArrow8" markerUnits="strokeWidth" viewBox="0 0 1 1" markerWidth="1" markerHeight="1" overflow="visible" orient="auto">
   <!-- REF_ARROW_FEATHER2 -->
   <g transform="scale(0.0092592592)">
    <path d="M -36,0 L 18,-54 L 54,-54 L 18,-18 L 27,-18 L 63,-54 L 99,-54 L 63,-18 L 72,-18 L 108,-54 L 144,-54 L 90,0 L 144,54 L 108,54 L 72,18 L 63,18 L 99,54 L 63,54 L 27,18 L 18,18 L 54,54 L 18,54 z"/>
   </g>
  </marker>
  <marker id="DefaultArrow9" markerUnits="strokeWidth" viewBox="0 0 1 1" markerWidth="1" markerHeight="1" overflow="visible" orient="auto">
   <!-- REF_ARROW_HOLLOWDIAMOND -->
   <g transform="scale(0.0092592592)">
    <path d="M 0,45 L -45,0 L 0, -45 L 45, 0 z M 0, 63 L-63, 0 L 0, -63 L 63, 0 z"/>
   </g>
  </marker>
  <filter id="StainedFilter">
   <feBlend mode="multiply" in2="BackgroundImage" in="SourceGraphic" result="blend"/>
   <feComposite in="blend" in2="SourceAlpha" operator="in" result="comp"/>
  </filter>
  <filter id="BleachFilter">
   <feBlend mode="screen" in2="BackgroundImage" in="SourceGraphic" result="blend"/>
   <feComposite in="blend" in2="SourceAlpha" operator="in" result="comp"/>
  </filter>
  <filter id="InvertTransparencyBitmapFilter">
   <feComponentTransfer>
    <feFuncR type="gamma" amplitude="1.055" exponent=".416666666" offset="-0.055"/>
    <feFuncG type="gamma" amplitude="1.055" exponent=".416666666" offset="-0.055"/>
    <feFuncB type="gamma" amplitude="1.055" exponent=".416666666" offset="-0.055"/>
   </feComponentTransfer>
   <feComponentTransfer>
    <feFuncR type="linear" slope="-1" intercept="1"/>
    <feFuncG type="linear" slope="-1" intercept="1"/>
    <feFuncB type="linear" slope="-1" intercept="1"/>
    <feFuncA type="linear" slope="1" intercept="0"/>
   </feComponentTransfer>
   <feComponentTransfer>
    <feFuncR type="gamma" amplitude="1" exponent="2.4" offset="0"/>
    <feFuncG type="gamma" amplitude="1" exponent="2.4" offset="0"/>
    <feFuncB type="gamma" amplitude="1" exponent="2.4" offset="0"/>
   </feComponentTransfer>
  </filter>
 </defs>
 <g id="Document" fill="none" stroke="black" font-family="Times New Roman" font-size="16" transform="scale(1 -1)">
  <g id="Spread" transform="translate(0 -36)">
   <g id="Layer 1 (2)">
    <g id="Group" stroke="none">
     <rect x="-12.749" y="-12.749" width="25.499" height="25.499" transform="translate(270.75 21.75) rotate(90)" stroke-linejoin="miter" stroke-width="1.5" stroke-miterlimit="79.8403193612775"/>
     <path d="M 270.61,9.026 C 270.49,9.052 270.432,9.071 270.429,9.071 C 270.439,9.067 270.45,9.062 270.461,9.058 C 270.439,9.066 270.429,9.071 270.429,9.071 C 270.392,9.088 270.371,9.1 270.403,9.087 C 270.36,9.11 270.329,9.13 270.319,9.136 C 270.286,9.159 270.309,9.142 270.337,9.124 C 270.326,9.131 270.319,9.136 270.314,9.139 C 270.299,9.149 270.297,9.15 270.314,9.139 L 270.319,9.136 C 270.261,9.179 270.26,9.182 270.277,9.171 L 270.231,9.208 C 270.223,9.215 270.215,9.222 270.207,9.23 L 270.209,9.229 C 270.182,9.255 270.161,9.275 270.202,9.235 C 270.091,9.343 270.061,9.373 270.202,9.235 L 270.205,9.232 C 267.412,12.336 263.78,17.455 262.31,21.616 C 261.948,22.588 261.75,23.647 261.75,24.75 C 261.75,29.718 265.781,33.75 270.75,33.75 C 275.718,33.75 279.75,29.718 279.75,24.75 C 279.75,23.647 279.551,22.588 279.189,21.616 C 277.717,17.453 274.084,12.334 271.318,9.261 C 271.325,9.268 271.308,9.249 271.291,9.231 L 271.289,9.229 C 271.5,9.437 271.379,9.314 271.268,9.208 L 271.221,9.171 C 271.248,9.188 271.228,9.17 271.19,9.143 L 271.188,9.142 C 271.197,9.148 271.196,9.147 271.188,9.142 C 271.188,9.143 271.178,9.136 271.161,9.124 C 271.171,9.13 271.181,9.137 271.19,9.143 C 271.177,9.135 271.143,9.114 271.095,9.087 C 271.126,9.1 271.105,9.088 271.068,9.071 C 271.068,9.071 271.058,9.066 271.037,9.058 C 271.047,9.062 271.058,9.067 271.068,9.071 C 271.065,9.071 271.007,9.052 270.888,9.026 C 270.952,9.02 270.85,8.999 270.749,8.999 C 270.648,8.999 270.546,9.02 270.61,9.026 Z M 270.18,9.261 L 270.205,9.232 C 270.167,9.268 270.187,9.249 270.207,9.23 C 270.19,9.249 270.173,9.268 270.18,9.261 Z M 270.205,9.232 C 269.911,9.546 270.062,9.383 270.206,9.232 C 270.189,9.251 270.179,9.262 270.205,9.232 Z M 271.318,9.261 C 271.333,9.279 271.324,9.27 271.291,9.232 C 271.434,9.383 271.585,9.546 271.318,9.261 Z M 270.18,9.261 C 270.167,9.275 270.166,9.276 270.18,9.261 Z M 277.778,22.127 C 278.084,22.947 278.25,23.828 278.25,24.75 C 278.25,28.889 274.889,32.25 270.75,32.25 C 266.61,32.25 263.25,28.889 263.25,24.75 C 263.25,23.828 263.415,22.947 263.721,22.127 C 265.158,18.056 268.856,12.914 270.749,10.829 C 272.641,12.913 276.339,18.055 277.778,22.127 Z M 265.498,24.75 C 265.498,27.649 267.85,30.002 270.75,30.002 C 273.649,30.002 276.002,27.649 276.002,24.75 C 276.002,21.85 273.649,19.498 270.75,19.498 C 267.85,19.498 265.498,21.85 265.498,24.75 Z M 274.502,24.75 C 274.502,26.82 272.82,28.502 270.75,28.502 C 268.679,28.502 266.998,26.82 266.998,24.75 C 266.998,22.679 268.679,20.998 270.75,20.998 C 272.82,20.998 274.502,22.679 274.502,24.75 Z" stroke-width="0.5" fill="#005eb9" fill-rule="evenodd" marker-start="none" marker-end="none" stroke-miterlimit="79.8403193612775"/>
    </g>
   </g>
  </g>
 </g>
</svg>
