<?xml version="1.0" standalone="no"?>
<!DOCTYPE svg PUBLIC "-//W3C//DTD SVG 1.1//EN" "http://www.w3.org/Graphics/SVG/1.1/DTD/svg11.dtd">
<!--Generator: Xara Xtreme (www.xara.com), SVG filter version: 1.0.0.13-->
<svg stroke-width="0.501" stroke-linejoin="bevel" fill-rule="evenodd" xmlns:xlink="http://www.w3.org/1999/xlink" xmlns="http://www.w3.org/2000/svg" version="1.1" overflow="visible" width="558.75pt" height="37.5pt" viewBox="0 0 558.75 37.5">
 <defs>
  <marker id="DefaultArrow2" markerUnits="strokeWidth" viewBox="0 0 1 1" markerWidth="1" markerHeight="1" overflow="visible" orient="auto">
   <!-- REF_ARROW_STRAIGHT (-2) -->
   <g transform="scale(0.0092592592)">
    <!-- 1/108 -->
    <path d="M -9 54 L -9 -54 L 117 0 z"/>
   </g>
  </marker>
  <marker id="DefaultArrow3" markerUnits="strokeWidth" viewBox="0 0 1 1" markerWidth="1" markerHeight="1" overflow="visible" orient="auto">
   <!-- REF_ARROW_ANGLED -->
   <g transform="scale(0.0092592592)">
    <path d="M -27 54 L -9 0 L -27 -54 L 135 0 z"/>
   </g>
  </marker>
  <marker id="DefaultArrow4" markerUnits="strokeWidth" viewBox="0 0 1 1" markerWidth="1" markerHeight="1" overflow="visible" orient="auto">
   <!-- REF_ARROW_ROUNDED -->
   <g transform="scale(0.0092592592)">
    <path d="M -9,0 L -9,-45 C -9,-51.708 2.808,-56.580 9,-54 L 117,-9 C 120.916,-7.369 126.000,-4.242 126,0 C 126,4.242 120.916,7.369 117,9 L 9,54 C 2.808,56.580 -9,51.708 -9,45 z"/>
   </g>
  </marker>
  <marker id="DefaultArrow5" markerUnits="strokeWidth" viewBox="0 0 1 1" markerWidth="1" markerHeight="1" overflow="visible" orient="auto">
   <!-- REF_ARROW_SPOT -->
   <g transform="scale(0.0092592592)">
    <path d="M -54, 0 C -54,29.807 -29.807,54 0,54 C 29.807,54 54,29.807 54,0 C 54,-29.807 29.807,-54 0,-54 C -29.807,-54 -54,-29.807 -54,0 z"/>
   </g>
  </marker>
  <marker id="DefaultArrow6" markerUnits="strokeWidth" viewBox="0 0 1 1" markerWidth="1" markerHeight="1" overflow="visible" orient="auto">
   <!-- REF_ARROW_DIAMOND -->
   <g transform="scale(0.0092592592)">
    <path d="M -63,0 L 0,63 L 63,0 L 0,-63 z"/>
   </g>
  </marker>
  <marker id="DefaultArrow7" markerUnits="strokeWidth" viewBox="0 0 1 1" markerWidth="1" markerHeight="1" overflow="visible" orient="auto">
   <!-- REF_ARROW_FEATHER -->
   <g transform="scale(0.0092592592)">
    <path d="M 18,-54 L 108,-54 L 63,0 L 108,54 L 18, 54 L -36,0 z"/>
   </g>
  </marker>
  <marker id="DefaultArrow8" markerUnits="strokeWidth" viewBox="0 0 1 1" markerWidth="1" markerHeight="1" overflow="visible" orient="auto">
   <!-- REF_ARROW_FEATHER2 -->
   <g transform="scale(0.0092592592)">
    <path d="M -36,0 L 18,-54 L 54,-54 L 18,-18 L 27,-18 L 63,-54 L 99,-54 L 63,-18 L 72,-18 L 108,-54 L 144,-54 L 90,0 L 144,54 L 108,54 L 72,18 L 63,18 L 99,54 L 63,54 L 27,18 L 18,18 L 54,54 L 18,54 z"/>
   </g>
  </marker>
  <marker id="DefaultArrow9" markerUnits="strokeWidth" viewBox="0 0 1 1" markerWidth="1" markerHeight="1" overflow="visible" orient="auto">
   <!-- REF_ARROW_HOLLOWDIAMOND -->
   <g transform="scale(0.0092592592)">
    <path d="M 0,45 L -45,0 L 0, -45 L 45, 0 z M 0, 63 L-63, 0 L 0, -63 L 63, 0 z"/>
   </g>
  </marker>
  <filter id="StainedFilter">
   <feBlend mode="multiply" in2="BackgroundImage" in="SourceGraphic" result="blend"/>
   <feComposite in="blend" in2="SourceAlpha" operator="in" result="comp"/>
  </filter>
  <filter id="BleachFilter">
   <feBlend mode="screen" in2="BackgroundImage" in="SourceGraphic" result="blend"/>
   <feComposite in="blend" in2="SourceAlpha" operator="in" result="comp"/>
  </filter>
  <filter id="InvertTransparencyBitmapFilter">
   <feComponentTransfer>
    <feFuncR type="gamma" amplitude="1.055" exponent=".416666666" offset="-0.055"/>
    <feFuncG type="gamma" amplitude="1.055" exponent=".416666666" offset="-0.055"/>
    <feFuncB type="gamma" amplitude="1.055" exponent=".416666666" offset="-0.055"/>
   </feComponentTransfer>
   <feComponentTransfer>
    <feFuncR type="linear" slope="-1" intercept="1"/>
    <feFuncG type="linear" slope="-1" intercept="1"/>
    <feFuncB type="linear" slope="-1" intercept="1"/>
    <feFuncA type="linear" slope="1" intercept="0"/>
   </feComponentTransfer>
   <feComponentTransfer>
    <feFuncR type="gamma" amplitude="1" exponent="2.4" offset="0"/>
    <feFuncG type="gamma" amplitude="1" exponent="2.4" offset="0"/>
    <feFuncB type="gamma" amplitude="1" exponent="2.4" offset="0"/>
   </feComponentTransfer>
  </filter>
 </defs>
 <g id="Document" fill="none" stroke="black" font-family="Times New Roman" font-size="16" transform="scale(1 -1)">
  <g id="Spread" transform="translate(0 -37.5)">
   <g id="icons">
    <g id="Group" stroke="none">
     <rect x="299.25" y="3.751" width="24" height="23.999" stroke-width="1.5" stroke-linejoin="miter" stroke-miterlimit="79.8403193612775"/>
     <path d="M 310.5,6.743 L 310.499,8.262 C 308.432,8.343 306.546,8.754 305.108,9.402 C 303.796,9.992 302.685,10.862 302.351,12 L 300.756,12 C 300.342,12 300.006,12.336 300.006,12.75 C 300.006,13.163 300.342,13.5 300.756,13.5 L 302.373,13.5 C 302.817,14.862 304.39,15.861 306.253,16.457 C 306.647,16.583 307.07,16.365 307.196,15.971 C 307.322,15.577 307.104,15.154 306.71,15.028 C 305.331,14.587 304.486,14.029 304.068,13.5 L 306.002,13.5 C 306.415,13.5 306.752,13.163 306.752,12.75 C 306.752,12.336 306.415,12 306.002,12 L 304.014,12 C 304.305,11.595 304.851,11.162 305.724,10.77 C 306.941,10.221 308.61,9.843 310.499,9.763 L 310.5,10.507 C 310.5,10.92 310.836,11.257 311.25,11.257 C 311.663,11.257 312,10.92 312,10.507 L 312,9.763 C 313.888,9.843 315.558,10.221 316.775,10.77 C 317.657,11.166 318.201,11.597 318.489,12 L 316.502,12 C 316.088,12 315.752,12.336 315.752,12.75 C 315.752,13.163 316.088,13.5 316.502,13.5 L 318.43,13.5 C 318.009,14.033 317.158,14.59 315.789,15.028 C 315.395,15.154 315.177,15.577 315.303,15.971 C 315.429,16.365 315.852,16.583 316.246,16.457 C 318.094,15.866 319.68,14.869 320.126,13.5 L 321.748,13.5 C 322.161,13.5 322.498,13.163 322.498,12.75 C 322.498,12.336 322.161,12 321.748,12 L 320.149,12 C 319.814,10.859 318.696,9.989 317.391,9.402 C 315.952,8.754 314.066,8.343 312,8.262 L 312,6.743 C 312,6.329 311.663,5.993 311.25,5.993 C 310.836,5.993 310.5,6.329 310.5,6.743 Z M 311.213,12.749 C 311.198,12.75 311.181,12.752 311.166,12.756 L 311.105,12.763 C 311.12,12.76 311.109,12.762 311.032,12.781 C 311.019,12.78 310.942,12.809 310.963,12.808 C 310.884,12.842 310.84,12.868 310.905,12.835 C 310.829,12.875 310.789,12.904 310.831,12.88 L 310.799,12.9 C 310.757,12.931 310.72,12.965 310.779,12.918 C 310.715,12.97 310.681,13.007 310.721,12.971 C 310.67,13.022 310.641,13.057 310.648,13.05 L 307.147,17.719 C 307.127,17.744 307.11,17.77 307.094,17.798 C 307.074,17.819 307.055,17.842 307.037,17.867 C 306.386,18.741 306,19.826 306,21 C 306,23.898 308.351,26.25 311.25,26.25 C 314.148,26.25 316.5,23.898 316.5,21 C 316.5,19.826 316.113,18.741 315.462,17.867 C 315.443,17.842 315.424,17.819 315.403,17.797 C 315.388,17.77 315.371,17.744 315.352,17.719 L 311.849,13.049 L 311.847,13.047 C 311.838,13.036 311.813,13.007 311.777,12.971 C 311.818,13.007 311.783,12.97 311.719,12.918 C 311.778,12.965 311.741,12.931 311.7,12.9 L 311.667,12.88 C 311.709,12.904 311.669,12.875 311.593,12.835 C 311.658,12.868 311.614,12.842 311.535,12.808 C 311.584,12.826 311.54,12.806 311.46,12.782 C 311.524,12.799 311.478,12.783 311.412,12.77 C 311.384,12.753 311.295,12.743 311.182,12.755 C 311.292,12.749 311.263,12.745 311.213,12.749 Z M 311.17,12.756 C 311.184,12.752 311.201,12.75 311.213,12.749 L 311.182,12.755 L 311.17,12.756 Z M 311.17,12.756 L 311.161,12.757 L 311.166,12.756 L 311.17,12.756 Z M 310.648,13.05 L 310.65,13.049 L 310.668,13.029 C 310.657,13.041 310.651,13.047 310.648,13.05 Z M 311.83,13.029 L 311.847,13.047 C 311.854,13.055 311.849,13.051 311.83,13.029 Z M 311.249,14.749 L 314.153,18.62 C 314.17,18.643 314.19,18.666 314.21,18.687 C 314.224,18.713 314.241,18.737 314.259,18.762 C 314.724,19.388 315,20.161 315,21 C 315,23.069 313.319,24.75 311.25,24.75 C 309.18,24.75 307.5,23.069 307.5,21 C 307.5,20.161 307.775,19.388 308.24,18.762 C 308.257,18.737 308.274,18.713 308.288,18.687 C 308.308,18.666 308.328,18.643 308.346,18.62 L 311.249,14.749 Z" stroke-width="0.5" fill="#ffffff" fill-rule="evenodd" marker-start="none" marker-end="none" stroke-miterlimit="79.8403193612775"/>
    </g>
   </g>
  </g>
 </g>
</svg>
