<?xml version="1.0" standalone="no"?>
<!DOCTYPE svg PUBLIC "-//W3C//DTD SVG 1.1//EN" "http://www.w3.org/Graphics/SVG/1.1/DTD/svg11.dtd">
<!--Generator: Xara Xtreme (www.xara.com), SVG filter version: 1.0.0.13-->
<svg stroke-width="0.501" stroke-linejoin="bevel" fill-rule="evenodd" xmlns:xlink="http://www.w3.org/1999/xlink" xmlns="http://www.w3.org/2000/svg" version="1.1" overflow="visible" width="558.75pt" height="37.5pt" viewBox="0 0 558.75 37.5">
 <defs>
  <marker id="DefaultArrow2" markerUnits="strokeWidth" viewBox="0 0 1 1" markerWidth="1" markerHeight="1" overflow="visible" orient="auto">
   <!-- REF_ARROW_STRAIGHT (-2) -->
   <g transform="scale(0.0092592592)">
    <!-- 1/108 -->
    <path d="M -9 54 L -9 -54 L 117 0 z"/>
   </g>
  </marker>
  <marker id="DefaultArrow3" markerUnits="strokeWidth" viewBox="0 0 1 1" markerWidth="1" markerHeight="1" overflow="visible" orient="auto">
   <!-- REF_ARROW_ANGLED -->
   <g transform="scale(0.0092592592)">
    <path d="M -27 54 L -9 0 L -27 -54 L 135 0 z"/>
   </g>
  </marker>
  <marker id="DefaultArrow4" markerUnits="strokeWidth" viewBox="0 0 1 1" markerWidth="1" markerHeight="1" overflow="visible" orient="auto">
   <!-- REF_ARROW_ROUNDED -->
   <g transform="scale(0.0092592592)">
    <path d="M -9,0 L -9,-45 C -9,-51.708 2.808,-56.580 9,-54 L 117,-9 C 120.916,-7.369 126.000,-4.242 126,0 C 126,4.242 120.916,7.369 117,9 L 9,54 C 2.808,56.580 -9,51.708 -9,45 z"/>
   </g>
  </marker>
  <marker id="DefaultArrow5" markerUnits="strokeWidth" viewBox="0 0 1 1" markerWidth="1" markerHeight="1" overflow="visible" orient="auto">
   <!-- REF_ARROW_SPOT -->
   <g transform="scale(0.0092592592)">
    <path d="M -54, 0 C -54,29.807 -29.807,54 0,54 C 29.807,54 54,29.807 54,0 C 54,-29.807 29.807,-54 0,-54 C -29.807,-54 -54,-29.807 -54,0 z"/>
   </g>
  </marker>
  <marker id="DefaultArrow6" markerUnits="strokeWidth" viewBox="0 0 1 1" markerWidth="1" markerHeight="1" overflow="visible" orient="auto">
   <!-- REF_ARROW_DIAMOND -->
   <g transform="scale(0.0092592592)">
    <path d="M -63,0 L 0,63 L 63,0 L 0,-63 z"/>
   </g>
  </marker>
  <marker id="DefaultArrow7" markerUnits="strokeWidth" viewBox="0 0 1 1" markerWidth="1" markerHeight="1" overflow="visible" orient="auto">
   <!-- REF_ARROW_FEATHER -->
   <g transform="scale(0.0092592592)">
    <path d="M 18,-54 L 108,-54 L 63,0 L 108,54 L 18, 54 L -36,0 z"/>
   </g>
  </marker>
  <marker id="DefaultArrow8" markerUnits="strokeWidth" viewBox="0 0 1 1" markerWidth="1" markerHeight="1" overflow="visible" orient="auto">
   <!-- REF_ARROW_FEATHER2 -->
   <g transform="scale(0.0092592592)">
    <path d="M -36,0 L 18,-54 L 54,-54 L 18,-18 L 27,-18 L 63,-54 L 99,-54 L 63,-18 L 72,-18 L 108,-54 L 144,-54 L 90,0 L 144,54 L 108,54 L 72,18 L 63,18 L 99,54 L 63,54 L 27,18 L 18,18 L 54,54 L 18,54 z"/>
   </g>
  </marker>
  <marker id="DefaultArrow9" markerUnits="strokeWidth" viewBox="0 0 1 1" markerWidth="1" markerHeight="1" overflow="visible" orient="auto">
   <!-- REF_ARROW_HOLLOWDIAMOND -->
   <g transform="scale(0.0092592592)">
    <path d="M 0,45 L -45,0 L 0, -45 L 45, 0 z M 0, 63 L-63, 0 L 0, -63 L 63, 0 z"/>
   </g>
  </marker>
  <filter id="StainedFilter">
   <feBlend mode="multiply" in2="BackgroundImage" in="SourceGraphic" result="blend"/>
   <feComposite in="blend" in2="SourceAlpha" operator="in" result="comp"/>
  </filter>
  <filter id="BleachFilter">
   <feBlend mode="screen" in2="BackgroundImage" in="SourceGraphic" result="blend"/>
   <feComposite in="blend" in2="SourceAlpha" operator="in" result="comp"/>
  </filter>
  <filter id="InvertTransparencyBitmapFilter">
   <feComponentTransfer>
    <feFuncR type="gamma" amplitude="1.055" exponent=".416666666" offset="-0.055"/>
    <feFuncG type="gamma" amplitude="1.055" exponent=".416666666" offset="-0.055"/>
    <feFuncB type="gamma" amplitude="1.055" exponent=".416666666" offset="-0.055"/>
   </feComponentTransfer>
   <feComponentTransfer>
    <feFuncR type="linear" slope="-1" intercept="1"/>
    <feFuncG type="linear" slope="-1" intercept="1"/>
    <feFuncB type="linear" slope="-1" intercept="1"/>
    <feFuncA type="linear" slope="1" intercept="0"/>
   </feComponentTransfer>
   <feComponentTransfer>
    <feFuncR type="gamma" amplitude="1" exponent="2.4" offset="0"/>
    <feFuncG type="gamma" amplitude="1" exponent="2.4" offset="0"/>
    <feFuncB type="gamma" amplitude="1" exponent="2.4" offset="0"/>
   </feComponentTransfer>
  </filter>
 </defs>
 <g id="Document" fill="none" stroke="black" font-family="Times New Roman" font-size="16" transform="scale(1 -1)">
  <g id="Spread" transform="translate(0 -37.5)">
   <g id="icons">
    <g id="Group" stroke-linejoin="miter" stroke="none" stroke-width="1.5" stroke-miterlimit="79.8403193612775">
     <rect x="367.5" y="6.001" width="24" height="23.999"/>
     <path d="M 368.25,9 C 368.25,9.413 368.586,9.75 369,9.75 L 370.5,9.75 L 370.5,17.25 C 370.5,17.663 370.836,18 371.25,18 L 373.5,18 L 373.5,27.75 C 373.5,28.163 373.836,28.5 374.25,28.5 L 384.75,28.5 C 385.163,28.5 385.5,28.163 385.5,27.75 L 385.5,24 C 385.5,23.586 385.163,23.25 384.75,23.25 C 384.336,23.25 384,23.586 384,24 L 384,27 L 375,27 L 375,18 L 378,18 C 378.413,18 378.75,17.663 378.75,17.25 C 378.75,16.836 378.413,16.5 378,16.5 L 372,16.5 L 372,9.75 L 381.75,9.75 C 382.163,9.75 382.5,9.413 382.5,9 C 382.5,8.586 382.163,8.25 381.75,8.25 L 369,8.25 C 368.586,8.25 368.25,8.586 368.25,9 Z M 384.666,9.006 L 384.605,9.013 C 384.62,9.01 384.609,9.012 384.532,9.031 C 384.519,9.03 384.442,9.059 384.463,9.058 C 384.384,9.092 384.34,9.118 384.405,9.085 C 384.329,9.125 384.289,9.154 384.331,9.13 L 384.299,9.15 C 384.257,9.181 384.22,9.215 384.279,9.168 C 384.215,9.22 384.181,9.257 384.221,9.221 C 384.17,9.272 384.141,9.307 384.148,9.3 L 380.647,13.969 C 380.627,13.994 380.61,14.02 380.594,14.048 C 380.574,14.069 380.555,14.092 380.537,14.117 C 379.886,14.991 379.5,16.076 379.5,17.25 C 379.5,20.148 381.851,22.5 384.75,22.5 C 387.648,22.5 390,20.148 390,17.25 C 390,16.076 389.613,14.991 388.962,14.117 C 388.943,14.092 388.924,14.069 388.903,14.047 C 388.888,14.02 388.871,13.994 388.852,13.969 L 385.349,9.299 L 385.347,9.297 C 385.338,9.286 385.313,9.257 385.277,9.221 C 385.318,9.257 385.283,9.22 385.219,9.168 C 385.278,9.215 385.241,9.181 385.2,9.15 L 385.167,9.13 C 385.209,9.154 385.169,9.125 385.093,9.085 C 385.158,9.118 385.114,9.092 385.035,9.058 C 385.084,9.076 385.04,9.056 384.96,9.032 C 385.024,9.049 384.978,9.033 384.912,9.02 C 384.884,9.003 384.795,8.993 384.677,9.005 C 384.793,8.999 384.763,8.995 384.724,8.998 L 384.677,9.005 L 384.67,9.006 C 384.684,9.002 384.701,9 384.724,8.998 C 384.698,9 384.681,9.002 384.666,9.006 Z M 384.67,9.006 L 384.661,9.007 L 384.666,9.006 L 384.67,9.006 Z M 384.168,9.279 L 384.15,9.299 L 384.148,9.3 C 384.151,9.297 384.157,9.291 384.168,9.279 Z M 385.33,9.279 L 385.347,9.297 C 385.354,9.305 385.349,9.301 385.33,9.279 Z M 384.749,10.999 L 387.653,14.87 C 387.67,14.893 387.69,14.916 387.71,14.937 C 387.724,14.963 387.741,14.987 387.759,15.012 C 388.224,15.638 388.5,16.411 388.5,17.25 C 388.5,19.319 386.819,21 384.75,21 C 382.68,21 381,19.319 381,17.25 C 381,16.411 381.275,15.638 381.74,15.012 C 381.757,14.987 381.774,14.963 381.788,14.937 C 381.808,14.916 381.828,14.893 381.846,14.87 L 384.749,10.999 Z M 373.501,11.462 L 373.501,12.537 C 373.501,12.654 373.596,12.749 373.713,12.749 L 374.79,12.749 C 374.907,12.749 375.002,12.654 375.002,12.537 L 375.002,11.462 C 375.002,11.345 374.907,11.25 374.79,11.25 L 373.713,11.25 C 373.596,11.25 373.501,11.345 373.501,11.462 Z M 375.749,11.462 L 375.749,12.537 C 375.749,12.654 375.844,12.749 375.961,12.749 L 377.038,12.749 C 377.155,12.749 377.25,12.654 377.25,12.537 L 377.25,11.462 C 377.25,11.345 377.155,11.25 377.038,11.25 L 375.961,11.25 C 375.844,11.25 375.749,11.345 375.749,11.462 Z M 377.999,11.462 L 377.999,12.537 C 377.999,12.654 378.094,12.749 378.211,12.749 L 379.288,12.749 C 379.405,12.749 379.5,12.654 379.5,12.537 L 379.5,11.462 C 379.5,11.345 379.405,11.25 379.288,11.25 L 378.211,11.25 C 378.094,11.25 377.999,11.345 377.999,11.462 Z M 373.5,13.712 L 373.5,14.787 C 373.5,14.904 373.595,14.999 373.712,14.999 L 374.789,14.999 C 374.906,14.999 375.001,14.904 375.001,14.787 L 375.001,13.712 C 375.001,13.595 374.906,13.5 374.789,13.5 L 373.712,13.5 C 373.595,13.5 373.5,13.595 373.5,13.712 Z M 375.748,13.712 L 375.748,14.787 C 375.748,14.904 375.843,14.999 375.96,14.999 L 377.037,14.999 C 377.154,14.999 377.249,14.904 377.249,14.787 L 377.249,13.712 C 377.249,13.595 377.154,13.5 377.037,13.5 L 375.96,13.5 C 375.843,13.5 375.748,13.595 375.748,13.712 Z M 377.998,13.712 L 377.998,14.787 C 377.998,14.904 378.093,14.999 378.21,14.999 L 379.287,14.999 C 379.404,14.999 379.499,14.904 379.499,14.787 L 379.499,13.712 C 379.499,13.595 379.404,13.5 379.287,13.5 L 378.21,13.5 C 378.093,13.5 377.998,13.595 377.998,13.712 Z M 383.25,17.25 C 383.25,18.078 383.922,18.75 384.75,18.75 C 385.578,18.75 386.25,18.078 386.25,17.25 C 386.25,16.422 385.578,15.75 384.75,15.75 C 383.922,15.75 383.25,16.422 383.25,17.25 Z M 376.5,19.712 L 376.5,20.787 C 376.5,20.904 376.595,20.999 376.712,20.999 L 377.789,20.999 C 377.906,20.999 378.001,20.904 378.001,20.787 L 378.001,19.712 C 378.001,19.595 377.906,19.5 377.789,19.5 L 376.712,19.5 C 376.595,19.5 376.5,19.595 376.5,19.712 Z M 376.499,21.962 L 376.499,23.037 C 376.499,23.154 376.594,23.249 376.711,23.249 L 377.788,23.249 C 377.905,23.249 378,23.154 378,23.037 L 378,21.962 C 378,21.845 377.905,21.75 377.788,21.75 L 376.711,21.75 C 376.594,21.75 376.499,21.845 376.499,21.962 Z M 378.749,21.962 L 378.749,23.037 C 378.749,23.154 378.844,23.249 378.961,23.249 L 380.038,23.249 C 380.155,23.249 380.25,23.154 380.25,23.037 L 380.25,21.962 C 380.25,21.845 380.155,21.75 380.038,21.75 L 378.961,21.75 C 378.844,21.75 378.749,21.845 378.749,21.962 Z M 376.499,24.212 L 376.499,25.287 C 376.499,25.404 376.594,25.499 376.711,25.499 L 377.788,25.499 C 377.905,25.499 378,25.404 378,25.287 L 378,24.212 C 378,24.095 377.905,24 377.788,24 L 376.711,24 C 376.594,24 376.499,24.095 376.499,24.212 Z M 378.749,24.212 L 378.749,25.287 C 378.749,25.404 378.844,25.499 378.961,25.499 L 380.038,25.499 C 380.155,25.499 380.25,25.404 380.25,25.287 L 380.25,24.212 C 380.25,24.095 380.155,24 380.038,24 L 378.961,24 C 378.844,24 378.749,24.095 378.749,24.212 Z M 380.999,24.213 L 380.999,25.288 C 380.999,25.405 381.094,25.5 381.211,25.5 L 382.288,25.5 C 382.405,25.5 382.5,25.405 382.5,25.288 L 382.5,24.213 C 382.5,24.096 382.405,24.001 382.288,24.001 L 381.211,24.001 C 381.094,24.001 380.999,24.096 380.999,24.213 Z" fill="#ffffff" marker-start="none" marker-end="none"/>
    </g>
   </g>
  </g>
 </g>
</svg>
