<?xml version="1.0" encoding="utf-8"?>
<!-- Generator: Adobe Illustrator 18.1.1, SVG Export Plug-In . SVG Version: 6.00 Build 0)  -->
<svg version="1.1" id="Layer_1" xmlns="http://www.w3.org/2000/svg" xmlns:xlink="http://www.w3.org/1999/xlink" x="0px" y="0px"
	 viewBox="411.3 387.5 22.5 22.5" style="enable-background:new 411.3 387.5 22.5 22.5;" xml:space="preserve">
<ellipse style="fill:#DDDDDD;" cx="422.5" cy="398.8" rx="11.3" ry="11.3"/>
<path marker-end="none" marker-start="none" style="fill:#FFFFFF;" d="M416.5,401.7v-5.3l5.6,3.7c0,0,0,0,0.1,0.1c0,0,0,0,0.1,0
	c0,0,0,0,0.1,0c0,0,0.1,0,0.1,0c0.1,0,0.1,0,0.1,0s0,0,0.1,0c0,0,0.1,0,0.1,0c0,0,0.1,0,0.1,0c0.1,0,0.1,0,0.1,0
	c0.1-0.1,0.1-0.1,0.1-0.1l5.6-3.7v5.3c0,0.9-0.7,1.6-1.6,1.6h-8.9C417.2,403.3,416.5,402.6,416.5,401.7z M422.2,400.2
	C422.2,400.2,422.2,400.2,422.2,400.2C422.2,400.2,422.1,400.2,422.2,400.2z M422.8,400.2C422.8,400.2,422.8,400.2,422.8,400.2
	C422.9,400.2,422.8,400.2,422.8,400.2z M422.5,398.6l-5.7-3.8c0.3-0.4,0.7-0.6,1.2-0.6h8.9c0.5,0,0.9,0.2,1.2,0.6L422.5,398.6z"/>
</svg>
