<?xml version="1.0" standalone="no"?>
<!DOCTYPE svg PUBLIC "-//W3C//DTD SVG 1.1//EN" "http://www.w3.org/Graphics/SVG/1.1/DTD/svg11.dtd">
<!--Generator: Xara Xtreme (www.xara.com), SVG filter version: 1.0.0.13-->
<svg stroke-width="0.501" stroke-linejoin="bevel" fill-rule="evenodd" xmlns:xlink="http://www.w3.org/1999/xlink" xmlns="http://www.w3.org/2000/svg" version="1.1" overflow="visible" width="558.75pt" height="37.5pt" viewBox="0 0 558.75 37.5">
 <defs>
  <marker id="DefaultArrow2" markerUnits="strokeWidth" viewBox="0 0 1 1" markerWidth="1" markerHeight="1" overflow="visible" orient="auto">
   <!-- REF_ARROW_STRAIGHT (-2) -->
   <g transform="scale(0.0092592592)">
    <!-- 1/108 -->
    <path d="M -9 54 L -9 -54 L 117 0 z"/>
   </g>
  </marker>
  <marker id="DefaultArrow3" markerUnits="strokeWidth" viewBox="0 0 1 1" markerWidth="1" markerHeight="1" overflow="visible" orient="auto">
   <!-- REF_ARROW_ANGLED -->
   <g transform="scale(0.0092592592)">
    <path d="M -27 54 L -9 0 L -27 -54 L 135 0 z"/>
   </g>
  </marker>
  <marker id="DefaultArrow4" markerUnits="strokeWidth" viewBox="0 0 1 1" markerWidth="1" markerHeight="1" overflow="visible" orient="auto">
   <!-- REF_ARROW_ROUNDED -->
   <g transform="scale(0.0092592592)">
    <path d="M -9,0 L -9,-45 C -9,-51.708 2.808,-56.580 9,-54 L 117,-9 C 120.916,-7.369 126.000,-4.242 126,0 C 126,4.242 120.916,7.369 117,9 L 9,54 C 2.808,56.580 -9,51.708 -9,45 z"/>
   </g>
  </marker>
  <marker id="DefaultArrow5" markerUnits="strokeWidth" viewBox="0 0 1 1" markerWidth="1" markerHeight="1" overflow="visible" orient="auto">
   <!-- REF_ARROW_SPOT -->
   <g transform="scale(0.0092592592)">
    <path d="M -54, 0 C -54,29.807 -29.807,54 0,54 C 29.807,54 54,29.807 54,0 C 54,-29.807 29.807,-54 0,-54 C -29.807,-54 -54,-29.807 -54,0 z"/>
   </g>
  </marker>
  <marker id="DefaultArrow6" markerUnits="strokeWidth" viewBox="0 0 1 1" markerWidth="1" markerHeight="1" overflow="visible" orient="auto">
   <!-- REF_ARROW_DIAMOND -->
   <g transform="scale(0.0092592592)">
    <path d="M -63,0 L 0,63 L 63,0 L 0,-63 z"/>
   </g>
  </marker>
  <marker id="DefaultArrow7" markerUnits="strokeWidth" viewBox="0 0 1 1" markerWidth="1" markerHeight="1" overflow="visible" orient="auto">
   <!-- REF_ARROW_FEATHER -->
   <g transform="scale(0.0092592592)">
    <path d="M 18,-54 L 108,-54 L 63,0 L 108,54 L 18, 54 L -36,0 z"/>
   </g>
  </marker>
  <marker id="DefaultArrow8" markerUnits="strokeWidth" viewBox="0 0 1 1" markerWidth="1" markerHeight="1" overflow="visible" orient="auto">
   <!-- REF_ARROW_FEATHER2 -->
   <g transform="scale(0.0092592592)">
    <path d="M -36,0 L 18,-54 L 54,-54 L 18,-18 L 27,-18 L 63,-54 L 99,-54 L 63,-18 L 72,-18 L 108,-54 L 144,-54 L 90,0 L 144,54 L 108,54 L 72,18 L 63,18 L 99,54 L 63,54 L 27,18 L 18,18 L 54,54 L 18,54 z"/>
   </g>
  </marker>
  <marker id="DefaultArrow9" markerUnits="strokeWidth" viewBox="0 0 1 1" markerWidth="1" markerHeight="1" overflow="visible" orient="auto">
   <!-- REF_ARROW_HOLLOWDIAMOND -->
   <g transform="scale(0.0092592592)">
    <path d="M 0,45 L -45,0 L 0, -45 L 45, 0 z M 0, 63 L-63, 0 L 0, -63 L 63, 0 z"/>
   </g>
  </marker>
  <filter id="StainedFilter">
   <feBlend mode="multiply" in2="BackgroundImage" in="SourceGraphic" result="blend"/>
   <feComposite in="blend" in2="SourceAlpha" operator="in" result="comp"/>
  </filter>
  <filter id="BleachFilter">
   <feBlend mode="screen" in2="BackgroundImage" in="SourceGraphic" result="blend"/>
   <feComposite in="blend" in2="SourceAlpha" operator="in" result="comp"/>
  </filter>
  <filter id="InvertTransparencyBitmapFilter">
   <feComponentTransfer>
    <feFuncR type="gamma" amplitude="1.055" exponent=".416666666" offset="-0.055"/>
    <feFuncG type="gamma" amplitude="1.055" exponent=".416666666" offset="-0.055"/>
    <feFuncB type="gamma" amplitude="1.055" exponent=".416666666" offset="-0.055"/>
   </feComponentTransfer>
   <feComponentTransfer>
    <feFuncR type="linear" slope="-1" intercept="1"/>
    <feFuncG type="linear" slope="-1" intercept="1"/>
    <feFuncB type="linear" slope="-1" intercept="1"/>
    <feFuncA type="linear" slope="1" intercept="0"/>
   </feComponentTransfer>
   <feComponentTransfer>
    <feFuncR type="gamma" amplitude="1" exponent="2.4" offset="0"/>
    <feFuncG type="gamma" amplitude="1" exponent="2.4" offset="0"/>
    <feFuncB type="gamma" amplitude="1" exponent="2.4" offset="0"/>
   </feComponentTransfer>
  </filter>
 </defs>
 <g id="Document" fill="none" stroke="black" font-family="Times New Roman" font-size="16" transform="scale(1 -1)">
  <g id="Spread" transform="translate(0 -37.5)">
   <g id="icons">
    <path d="M 133.577,6.677 C 131.241,7.073 130.103,8.442 129.638,10.584 L 129.63,10.622 C 128.752,15.957 128.82,20.858 129.632,25.413 L 129.643,25.464 C 130.214,27.635 131.326,28.965 133.579,29.35 C 138.574,30.226 143.519,30.215 148.411,29.348 C 150.794,28.893 151.912,27.609 152.349,25.422 C 153.192,20.755 153.242,15.836 152.352,10.616 C 151.94,8.264 150.805,7.173 148.419,6.679 C 143.52,5.777 138.57,5.767 133.577,6.677 Z M 148.132,8.152 C 149.928,8.523 150.576,9.171 150.873,10.871 C 151.735,15.921 151.685,20.664 150.876,25.141 C 150.553,26.754 149.867,27.543 148.14,27.873 C 143.43,28.708 138.661,28.719 133.834,27.871 C 132.482,27.64 131.747,27.007 131.28,25.695 L 131.103,25.116 L 130.849,23.49 C 130.399,20.138 130.365,16.583 130.834,12.784 L 131.108,10.881 L 131.254,10.326 C 131.655,9.068 132.394,8.399 133.836,8.154 C 138.661,7.276 143.427,7.286 148.132,8.152 Z M 132.741,18 C 132.741,22.555 136.44,26.253 140.997,26.253 C 145.553,26.253 149.253,22.555 149.253,18 C 149.253,13.444 145.553,9.747 140.997,9.747 C 136.44,9.747 132.741,13.444 132.741,18 Z M 147.753,18 C 147.753,21.726 144.726,24.753 140.997,24.753 C 137.267,24.753 134.241,21.726 134.241,18 C 134.241,14.273 137.267,11.247 140.997,11.247 C 144.726,11.247 147.753,14.273 147.753,18 Z M 136.499,14.78 L 136.499,15.221 C 136.499,15.513 136.737,15.751 137.029,15.751 L 144.97,15.751 C 145.262,15.751 145.5,15.513 145.5,15.221 L 145.5,14.78 C 145.5,14.488 145.262,14.25 144.97,14.25 L 137.029,14.25 C 136.737,14.25 136.499,14.488 136.499,14.78 Z M 136.498,17.78 L 136.498,18.221 C 136.498,18.513 136.736,18.751 137.028,18.751 L 144.969,18.751 C 145.261,18.751 145.499,18.513 145.499,18.221 L 145.499,17.78 C 145.499,17.488 145.261,17.25 144.969,17.25 L 137.028,17.25 C 136.736,17.25 136.498,17.488 136.498,17.78 Z M 136.499,20.779 L 136.499,21.22 C 136.499,21.512 136.737,21.75 137.029,21.75 L 144.97,21.75 C 145.262,21.75 145.5,21.512 145.5,21.22 L 145.5,20.779 C 145.5,20.487 145.262,20.249 144.97,20.249 L 137.029,20.249 C 136.737,20.249 136.499,20.487 136.499,20.779 Z" stroke-width="1.5" stroke="none" fill="#0082cb" stroke-linejoin="miter" marker-start="none" marker-end="none" stroke-miterlimit="79.8403193612775"/>
   </g>
  </g>
 </g>
</svg>
